<svg xmlns="http://www.w3.org/2000/svg" width="295.286" height="187" viewBox="0 0 295.286 187">
  <g id="_1" data-name="1" transform="translate(-180 -488)">
    <path id="Rectángulo_374163" data-name="Rectángulo 374163" d="M5,0H245a50,50,0,0,1,50,50V182a5,5,0,0,1-5,5H5a5,5,0,0,1-5-5V5A5,5,0,0,1,5,0Z" transform="translate(180 488)" fill="#ece5fe"/>
    <path id="Rectángulo_381822" data-name="Rectángulo 381822" d="M0,0H48a0,0,0,0,1,0,0V40.3A23.7,23.7,0,0,1,24.3,64h0A24.3,24.3,0,0,1,0,39.7V0A0,0,0,0,1,0,0Z" transform="translate(196 488)" fill="#8054f8"/>
    <g id="Sustracción_13" data-name="Sustracción 13" transform="translate(423 652.178) rotate(-90)" fill="none">
      <path d="M103.348,52.286H0v-.327A52.588,52.588,0,0,1,1.05,41.488a51.932,51.932,0,0,1,30.511-37.4A51.391,51.391,0,0,1,80.566,8.874,52.081,52.081,0,0,1,99.287,31.735a51.654,51.654,0,0,1,3.012,9.752,52.575,52.575,0,0,1,1.052,10.472c0,.108,0,.212,0,.319v.009Z" stroke="none"/>
      <path d="M 100.2791595458984 49.28636169433594 C 100.1486587524414 46.86073303222656 99.84091949462891 44.44833755493164 99.3594970703125 42.08530044555664 C 98.71920776367188 38.93619155883789 97.76490020751953 35.84603881835938 96.52186584472656 32.89785385131836 C 95.301025390625 29.99402236938477 93.79108428955078 27.19670104980469 92.03315734863281 24.58233070373535 C 90.2900390625 21.98711585998535 88.28977203369141 19.54840850830078 86.08879089355469 17.33477783203125 C 83.88426971435547 15.11937713623047 81.45897674560547 13.10756206512451 78.88031768798828 11.35523891448975 C 76.28397369384766 9.590930938720703 73.50263977050781 8.072977066040039 70.61240386962891 6.843084812164307 C 67.68833160400391 5.597331047058105 64.61727142333984 4.638884544372559 61.48266983032227 3.993961572647095 C 58.28715896606445 3.334423303604126 54.9875602722168 3.00000786781311 51.67551422119141 3.00000786781311 C 48.36348342895508 3.00000786781311 45.06388473510742 3.334423303604126 41.86635971069336 3.994377136230469 C 38.74192810058594 4.637022972106934 35.66970062255859 5.595715522766113 32.73526763916016 6.843699932098389 C 29.8448371887207 8.073300361633301 27.0641918182373 9.591023445129395 24.46859169006348 11.35603904724121 C 21.88800621032715 13.10785388946533 19.46356010437012 15.11896133422852 17.26171493530273 17.3343620300293 C 15.05620670318604 19.55162239074707 13.05514526367188 21.99019241333008 11.31349849700928 24.58320808410645 C 9.556975364685059 27.19636154174805 8.04689884185791 29.99399185180664 6.825114250183105 32.89856338500977 C 5.582575798034668 35.85188293457031 4.628591060638428 38.9427604675293 3.989468097686768 42.08613204956055 C 3.508914232254028 44.44622421264648 3.201757669448853 46.85822296142578 3.071607351303101 49.28636169433594 L 100.2791595458984 49.28636169433594 M 103.3482055664062 52.28636169433594 L 6.528883659484563e-06 52.28636169433594 C 6.528883659484563e-06 52.23228454589844 6.528883659484563e-06 52.17820739746094 6.528883659484563e-06 52.12413024902344 C 6.528883659484563e-06 52.06720733642578 6.528883659484563e-06 52.01313018798828 6.528883659484563e-06 51.95906829833984 C 6.528883659484563e-06 48.43473052978516 0.3524526953697205 44.91228485107422 1.049791097640991 41.4875602722168 C 1.728175759315491 38.15106964111328 2.741960287094116 34.86768341064453 4.059883594512939 31.73516082763672 C 5.356006622314453 28.65385437011719 6.959114074707031 25.68354606628418 8.823714256286621 22.90960693359375 C 10.67220687866211 20.15749931335449 12.7954683303833 17.57045364379883 15.1347599029541 15.21868515014648 C 17.47403717041016 12.8650074005127 20.04734420776367 10.73143863677979 22.78362274169922 8.873930931091309 C 25.54452896118164 6.996500015258789 28.49680709838867 5.386592388153076 31.56089973449707 4.083115577697754 C 34.6771125793457 2.757807731628418 37.94111251831055 1.738930821418762 41.26195907592773 1.055884718894958 C 44.66336059570312 0.3538539409637451 48.16897583007812 7.801701030984987e-06 51.67551422119141 7.801701030984987e-06 C 55.18302154541016 7.801701030984987e-06 58.68768310546875 0.3538539409637451 62.08906936645508 1.055884718894958 C 65.40897369384766 1.738930821418762 68.6729736328125 2.755915403366089 71.78823852539062 4.083115577697754 C 74.85137939453125 5.386592388153076 77.80366516113281 6.996500015258789 80.56646728515625 8.873930931091309 C 83.29991149902344 10.73143863677979 85.87320709228516 12.8650074005127 88.21533203125 15.21868515014648 C 90.55366516113281 17.57045364379883 92.67503356933594 20.15749931335449 94.52354431152344 22.90960693359375 C 96.39003753662109 25.68543815612793 97.99312591552734 28.65670013427734 99.28739166259766 31.73516082763672 C 100.6081466674805 34.86768341064453 101.620964050293 38.15106964111328 102.2993469238281 41.4875602722168 C 102.9966812133789 44.91039276123047 103.3510360717773 48.43473052978516 103.3510360717773 51.95906829833984 C 103.3510360717773 52.06720733642578 103.3482055664062 52.17156219482422 103.3482055664062 52.27782440185547 L 103.3482055664062 52.28636169433594 Z" stroke="none" fill="#8054f8"/>
    </g>
    <g id="python" transform="translate(271.147 525.164)">
      <path id="Trazado_828705" data-name="Trazado 828705" d="M150.143,84.59a59.2,59.2,0,0,1-.056,27.386,11.649,11.649,0,0,1-11.347,8.986H120.945v17.8a11.652,11.652,0,0,1-9.238,11.407,59.19,59.19,0,0,1-27.1,0,11.655,11.655,0,0,1-9.252-11.409V109.821A11.658,11.658,0,0,1,87.009,98.163h22.278a11.658,11.658,0,0,0,11.658-11.656V75.368h17.8a11.65,11.65,0,0,1,11.4,9.222Z" transform="translate(-41.659 -41.678)" fill="#f0c020"/>
      <path id="Trazado_828706" data-name="Trazado 828706" d="M80.677,17.307V46.241A11.658,11.658,0,0,1,69.018,57.9H46.741A11.658,11.658,0,0,0,35.083,69.555V80.694h-17.8A11.649,11.649,0,0,1,5.94,71.714a59.215,59.215,0,0,1,0-27.633A11.65,11.65,0,0,1,17.287,35.1h17.8v-17.8A11.653,11.653,0,0,1,44.3,5.9,59.2,59.2,0,0,1,71.4,5.891a11.658,11.658,0,0,1,9.277,11.416Z" transform="translate(-1.39 -1.411)" fill="#72c1e8"/>
      <circle id="Elipse_10578" data-name="Elipse 10578" cx="3.643" cy="3.643" r="3.643" transform="translate(42.263 17.308) rotate(-22.514)" fill="#fff"/>
      <circle id="Elipse_10579" data-name="Elipse 10579" cx="3.643" cy="3.643" r="3.643" transform="translate(62.322 90.04)" fill="#fff"/>
      <path id="Trazado_828707" data-name="Trazado 828707" d="M168.558,146.605a1.083,1.083,0,0,1-1.083-1.083v-2.1a1.083,1.083,0,1,1,2.166,0v2.1A1.083,1.083,0,0,1,168.558,146.605Zm0-6.435a1.083,1.083,0,0,1-1.083-1.083V121.415a1.083,1.083,0,0,1,1.083-1.083h22.4a4.486,4.486,0,0,0,4.389-3.474,52.367,52.367,0,0,0,0-24.363,4.479,4.479,0,0,0-4.386-3.461,1.083,1.083,0,1,1,0-2.166,6.644,6.644,0,0,1,6.548,5.359,54.529,54.529,0,0,1-.051,25.126,6.642,6.642,0,0,1-6.5,5.145H169.643v16.589a1.083,1.083,0,0,1-1.085,1.084Z" transform="translate(-93.874 -48.196)" fill="#f9e5af"/>
      <path id="Trazado_828708" data-name="Trazado 828708" d="M59.934,84.068a1.083,1.083,0,0,1-1.083-1.083V81.044a1.083,1.083,0,0,1,2.166,0v1.941a1.083,1.083,0,0,1-1.083,1.083ZM59.9,77.793a1.083,1.083,0,0,1-1.008-1.153A18.849,18.849,0,0,1,77.657,59.1H99.935a4.515,4.515,0,0,0,4.51-4.51V25.662a4.484,4.484,0,0,0-3.471-4.389l-.291-.07a1.083,1.083,0,1,1,.494-2.109l.291.068a6.641,6.641,0,0,1,5.143,6.5V54.593a6.683,6.683,0,0,1-6.676,6.676H77.657a16.678,16.678,0,0,0-16.6,15.515A1.083,1.083,0,0,1,59.9,77.793Z" transform="translate(-32.306 -9.766)" fill="#c5e5ff"/>
      <path id="Trazado_828709" data-name="Trazado 828709" d="M109.848,74.785a12.751,12.751,0,0,0-12.4-9.812H80.732V59.961a1.083,1.083,0,0,0-2.162-.009.015.015,0,0,0,0,.009V77.2A10.613,10.613,0,0,1,67.992,87.772H45.717a12.731,12.731,0,0,0-12.74,12.74v10.055H16.265a10.519,10.519,0,0,1-10.293-8.144,58.631,58.631,0,0,1-1.308-7.7,1.084,1.084,0,1,0-2.157.221,60.728,60.728,0,0,0,1.356,7.975,12.739,12.739,0,0,0,12.4,9.812H32.978v16.713A12.74,12.74,0,0,0,43.037,141.9a59.779,59.779,0,0,0,27.721-.017,12.748,12.748,0,0,0,9.981-12.442V112.733h5.2a1.083,1.083,0,0,0,0-2.166H56.856a1.083,1.083,0,0,0,0,2.166H78.57v16.713a10.523,10.523,0,0,1-8.4,10.353,58.352,58.352,0,0,1-26.607,0,10.53,10.53,0,0,1-8.417-10.358V100.511A10.609,10.609,0,0,1,45.717,89.936H68A12.745,12.745,0,0,0,80.736,77.2V67.139H97.449a10.522,10.522,0,0,1,10.31,8.244,1.46,1.46,0,0,1,.035.147,58.348,58.348,0,0,1-.056,26.889,10.518,10.518,0,0,1-10.293,8.148H94.6a1.083,1.083,0,0,0,0,2.166h2.842a12.736,12.736,0,0,0,12.4-9.821C112.542,91.563,111.54,84,109.848,74.785Z" transform="translate(-0.367 -32.367)"/>
      <circle id="Elipse_10580" data-name="Elipse 10580" cx="1.083" cy="1.083" r="1.083" transform="translate(88.823 78.2)"/>
      <path id="Trazado_828710" data-name="Trazado 828710" d="M179.177,48.794a1.083,1.083,0,1,0,1.079,1.083A1.083,1.083,0,0,0,179.177,48.794Z" transform="translate(-99.891 -26.616)"/>
      <path id="Trazado_828711" data-name="Trazado 828711" d="M3.026,54.9a1.083,1.083,0,0,0,1.083-1.027v-.009A58.16,58.16,0,0,1,5.655,42.92a10.518,10.518,0,0,1,10.293-8.148H56.539a1.083,1.083,0,0,0,0-2.166H34.827V15.9A10.519,10.519,0,0,1,43.214,5.546,58.286,58.286,0,0,1,69.9,5.555,10.527,10.527,0,0,1,78.251,15.9v3.032a1.085,1.085,0,0,0,2.17,0l0-3.032A12.737,12.737,0,0,0,70.306,3.423a60.506,60.506,0,0,0-27.591.013A12.748,12.748,0,0,0,32.661,15.9V32.6H15.948A12.753,12.753,0,0,0,3.48,42.693,60.784,60.784,0,0,0,1.943,53.766,1.083,1.083,0,0,0,3.026,54.9Z" transform="translate(-0.05 0)"/>
      <path id="Trazado_828712" data-name="Trazado 828712" d="M2.967,131.489a1.086,1.086,0,0,0,1.053-1.113,1.07,1.07,0,0,0-1.113-1.053,1.083,1.083,0,0,0,.061,2.166Z" transform="translate(0 -72.259)"/>
      <path id="Trazado_828713" data-name="Trazado 828713" d="M95.192,35.946a4.726,4.726,0,1,0,4.726-4.726,4.726,4.726,0,0,0-4.726,4.726Zm7.286,0a2.56,2.56,0,1,1-2.56-2.56A2.56,2.56,0,0,1,102.478,35.946Z" transform="translate(-52.905 -16.655)"/>
      <path id="Trazado_828714" data-name="Trazado 828714" d="M148.391,207.672a4.726,4.726,0,1,0-4.726,4.726A4.726,4.726,0,0,0,148.391,207.672Zm-7.286,0a2.56,2.56,0,1,1,2.56,2.56,2.56,2.56,0,0,1-2.56-2.56Z" transform="translate(-77.7 -113.988)"/>
    </g>
    <path id="Trazado_828715" data-name="Trazado 828715" d="M325.19,448.2a3.777,3.777,0,0,0,1.11,2.679l3.835,3.834-3.835,3.834a3.79,3.79,0,0,0,5.359,5.359l3.834-3.834,3.834,3.834a3.789,3.789,0,0,0,5.358-5.359l-3.834-3.834,3.834-3.834a3.789,3.789,0,0,0,0-5.358h0a3.789,3.789,0,0,0-5.358,0l-3.834,3.834-3.834-3.834a3.791,3.791,0,0,0-5.359,0h0a3.777,3.777,0,0,0-1.11,2.679Z" transform="translate(-76.189 167.155)" fill="#98d1ca"/>
  </g>
</svg>
