<svg xmlns="http://www.w3.org/2000/svg" width="80" height="80" viewBox="0 0 80 80">
  <g id="_11" data-name="11" transform="translate(-295 -3572)">
    <rect id="Rectángulo_381725" data-name="Rectángulo 381725" width="80" height="80" rx="10" transform="translate(295 3572)" fill="#ece5fe"/>
    <g id="migrating" transform="translate(303 3580.001)">
      <path id="Trazado_828631" data-name="Trazado 828631" d="M47,27A9,9,0,0,0,49.987,9.518a8.994,8.994,0,0,0-15.9-5.271A8.943,8.943,0,0,0,25.1,7.256a8.969,8.969,0,0,0-11.085,8.262A8.978,8.978,0,0,0,12.051,31.5,2.978,2.978,0,0,0,12,32V55H11a3,3,0,0,0-3,3,5.006,5.006,0,0,0,5,5H51a5.006,5.006,0,0,0,5-5,3,3,0,0,0-3-3H52V32a3,3,0,0,0-3-3H44.473a8.973,8.973,0,0,0,1.006-2ZM34.159,6.343a1,1,0,0,0,1.125-.374A6.993,6.993,0,0,1,48,10.082l-.009.143a1,1,0,0,0,.752,1A7,7,0,0,1,47,25H45.938a8.918,8.918,0,0,0-5.589-9.349,8.985,8.985,0,0,0-10.436-5.4,9.005,9.005,0,0,0-2.8-2.232,7.086,7.086,0,0,1,7.046-1.676ZM10,24a6.99,6.99,0,0,1,5.26-6.772,1,1,0,0,0,.753-1L16,16a7,7,0,0,1,12.716-4.031,1,1,0,0,0,1.125.374,6.988,6.988,0,0,1,8.783,4.408,1,1,0,0,0,.625.625,6.972,6.972,0,0,1,4.377,8.862A.982.982,0,0,0,43,26H41.534a9.941,9.941,0,0,0-.672-1.619L41.9,23.343a1,1,0,0,0,0-1.414L39.071,19.1a1,1,0,0,0-1.414,0l-1.038,1.037A9.941,9.941,0,0,0,35,19.466V18a1,1,0,0,0-1-1H30a1,1,0,0,0-1,1v1.466a9.941,9.941,0,0,0-1.619.672L26.343,19.1a1,1,0,0,0-1.414,0L22.1,21.929a1,1,0,0,0,0,1.414l1.037,1.038A9.941,9.941,0,0,0,22.466,26H21a1,1,0,0,0-1,1v2H15a2.971,2.971,0,0,0-1.97.756A6.985,6.985,0,0,1,10,24ZM46,55H18V35h3.88a.985.985,0,0,0,.221,1.071L24.929,38.9a1,1,0,0,0,1.414,0l1.038-1.038A9.858,9.858,0,0,0,29,38.534V40a1,1,0,0,0,1,1h4a1,1,0,0,0,1-1V38.534a9.858,9.858,0,0,0,1.619-.673L37.657,38.9a1,1,0,0,0,1.414,0L41.9,36.071A.985.985,0,0,0,42.12,35H46ZM39.794,30.778a7.9,7.9,0,0,1-1.027,2.474,1,1,0,0,0,.139,1.24l.872.872-1.414,1.414-.872-.872a1,1,0,0,0-1.241-.138A7.959,7.959,0,0,1,33.778,36.8a1,1,0,0,0-.778.97V39H31V37.77a1,1,0,0,0-.778-.975,7.959,7.959,0,0,1-2.473-1.027,1,1,0,0,0-1.241.138l-.872.872-1.414-1.414.872-.872a1,1,0,0,0,.139-1.24,7.9,7.9,0,0,1-1.027-2.474A1,1,0,0,0,23.23,30H22V28h1.23a1,1,0,0,0,.976-.778,7.917,7.917,0,0,1,1.027-2.473,1,1,0,0,0-.139-1.241l-.872-.872,1.414-1.414.872.872a1,1,0,0,0,1.241.139,7.917,7.917,0,0,1,2.473-1.027A1,1,0,0,0,31,20.23V19h2v1.23a1,1,0,0,0,.778.976,7.917,7.917,0,0,1,2.473,1.027,1,1,0,0,0,1.241-.139l.872-.872,1.414,1.414-.872.872a1,1,0,0,0-.139,1.241,7.917,7.917,0,0,1,1.027,2.473A1,1,0,0,0,40.77,28H42v2H40.77a1,1,0,0,0-.976.778ZM14,32a1,1,0,0,1,1-1h5a1,1,0,0,0,1,1h1.466a9.67,9.67,0,0,0,.383,1H17a1,1,0,0,0-1,1V55H14ZM54,58a3,3,0,0,1-3,3H13a3,3,0,0,1-3-3,1,1,0,0,1,1-1H53A1,1,0,0,1,54,58ZM50,32V55H48V34a1,1,0,0,0-1-1H41.151a9.669,9.669,0,0,0,.383-1H43a1,1,0,0,0,1-1h5A1,1,0,0,1,50,32Z" fill="#8054f8"/>
      <path id="Trazado_828632" data-name="Trazado 828632" d="M32,23a6,6,0,1,0,6,6,6,6,0,0,0-6-6Zm0,10a4,4,0,1,1,4-4A4,4,0,0,1,32,33Z" fill="#8054f8"/>
      <path id="Trazado_828633" data-name="Trazado 828633" d="M60,17H58v2h2a1,1,0,0,1,1,1V46a1,1,0,0,1-1,1H54v2h6a3,3,0,0,0,3-3V20A3,3,0,0,0,60,17Z" fill="#8054f8"/>
      <path id="Trazado_828634" data-name="Trazado 828634" d="M4,49h6V47H4a1,1,0,0,1-1-1V20a1,1,0,0,1,1-1H6V17H4a3,3,0,0,0-3,3V46A3,3,0,0,0,4,49Z" fill="#8054f8"/>
    </g>
  </g>
</svg>
