<svg xmlns="http://www.w3.org/2000/svg" width="190" height="112" viewBox="0 0 190 112">
  <g id="_18" data-name="18" transform="translate(-180 -8924)">
    <path id="Rectángulo_381786" data-name="Rectángulo 381786" d="M5,0H140a50,50,0,0,1,50,50v57a5,5,0,0,1-5,5H5a5,5,0,0,1-5-5V5A5,5,0,0,1,5,0Z" transform="translate(180 8924)" fill="#ece5fe"/>
    <g id="Filled-Outline" transform="translate(219.656 8924.656)">
      <g id="Analytic-graph_copy" data-name="Analytic-graph copy" transform="translate(16 16)">
        <path id="Trazado_828740" data-name="Trazado 828740" d="M340.852,418.623v9.18H312v-6.557L317.246,416l6.557,6.557,3.934-3.934,3.934,3.934L338.229,416Z" transform="translate(-263.476 -350.427)" fill="#00a5ab"/>
        <path id="Trazado_828741" data-name="Trazado 828741" d="M340.852,312v19.672l-2.623-2.623-6.557,6.557-3.934-3.934-3.934,3.934-6.557-6.557L312,334.295v-6.557l7.869-7.869,6.557,6.557Z" transform="translate(-263.476 -263.476)" fill="#ff5a21"/>
        <path id="Trazado_828742" data-name="Trazado 828742" d="M318.557,417.311V427.8H312v-6.557L317.246,416Z" transform="translate(-263.476 -350.427)" fill="#007d93"/>
        <path id="Trazado_828743" data-name="Trazado 828743" d="M323.147,363.279l-4.59,4.59v2.623l-1.311-1.311L312,374.426v-6.557L319.869,360Z" transform="translate(-263.476 -303.607)" fill="#fc3c1d"/>
        <path id="Trazado_828744" data-name="Trazado 828744" d="M431.147,312v6.557l-7.869,7.869L420,323.147Z" transform="translate(-353.772 -263.476)" fill="#fc3c1d"/>
        <path id="Trazado_828745" data-name="Trazado 828745" d="M120,328h5.246v20.983H120Z" transform="translate(-102.951 -276.853)" fill="#00a5ab"/>
        <path id="Trazado_828746" data-name="Trazado 828746" d="M56,376h5.246v13.115H56Z" transform="translate(-49.443 -316.985)" fill="#ffd648"/>
        <path id="Trazado_828747" data-name="Trazado 828747" d="M184,296h5.246v26.229H184Z" transform="translate(-156.459 -250.099)" fill="#ff5a21"/>
        <path id="Trazado_828748" data-name="Trazado 828748" d="M120,328h2.623v20.983H120Z" transform="translate(-102.951 -276.853)" fill="#007d93"/>
        <path id="Trazado_828749" data-name="Trazado 828749" d="M56,376h2.623v13.115H56Z" transform="translate(-49.443 -316.985)" fill="#ffb300"/>
        <path id="Trazado_828750" data-name="Trazado 828750" d="M184,296h2.623v26.229H184Z" transform="translate(-156.459 -250.099)" fill="#fc3c1d"/>
        <path id="Trazado_828751" data-name="Trazado 828751" d="M182.37,31.924a16.882,16.882,0,0,1,2.679,9.124H168V24a17.1,17.1,0,0,1,14.37,7.924Z" transform="translate(-143.082 -22.689)" fill="#ff5a21"/>
        <path id="Trazado_828752" data-name="Trazado 828752" d="M53.718,92.406A17.034,17.034,0,1,1,41.049,64V81.049H58.1A16.966,16.966,0,0,1,53.718,92.406Z" transform="translate(-22.689 -56.131)" fill="#ffd648"/>
        <path id="Trazado_828753" data-name="Trazado 828753" d="M174.557,25.328V41.049H168V24A16.794,16.794,0,0,1,174.557,25.328Z" transform="translate(-143.082 -22.689)" fill="#fc3c1d"/>
        <path id="Trazado_828754" data-name="Trazado 828754" d="M44.331,97.777a16.817,16.817,0,0,1-3.282.321,17.049,17.049,0,0,1,0-34.1v1.328a17.035,17.035,0,0,0,3.282,32.449Z" transform="translate(-22.689 -56.131)" fill="#ffb300"/>
        <g id="Grupo_1076064" data-name="Grupo 1076064" transform="translate(0)">
          <path id="Trazado_828755" data-name="Trazado 828755" d="M34.36,92.721a18.358,18.358,0,0,0,12.683-5.134l.816.816a1.312,1.312,0,0,0,.927.384H68.458V86.163H49.329l-.524-.524A18.259,18.259,0,0,0,52.721,74.36a1.311,1.311,0,0,0-1.311-1.311H35.672V57.311A1.311,1.311,0,0,0,34.36,56a18.36,18.36,0,0,0,0,36.721Zm-11.1-29.465a15.637,15.637,0,0,1,9.793-4.579V74.36a1.311,1.311,0,0,0,1.311,1.311H50.042a15.659,15.659,0,0,1-3.108,8.1L43.156,79.99,41.3,81.845l3.887,3.887A15.7,15.7,0,1,1,23.255,63.256Z" transform="translate(-16 -49.443)" fill="#00074e"/>
          <path id="Trazado_828756" data-name="Trazado 828756" d="M161.311,35.672H178.36a1.311,1.311,0,0,0,1.311-1.311,18.187,18.187,0,0,0-2.341-8.919l1.573-1.573h9.949V21.246H178.36a1.311,1.311,0,0,0-.927.384l-1.577,1.577A18.286,18.286,0,0,0,161.311,16,1.311,1.311,0,0,0,160,17.311V34.36A1.311,1.311,0,0,0,161.311,35.672Zm1.311-16.994a15.7,15.7,0,0,1,11.36,6.4l-3.108,3.107,1.855,1.855,2.663-2.662a15.563,15.563,0,0,1,1.6,5.669H162.623Z" transform="translate(-136.394 -16)" fill="#00074e"/>
          <path id="Trazado_828757" data-name="Trazado 828757" d="M177.311,288A1.311,1.311,0,0,0,176,289.311v26.229a1.311,1.311,0,0,0,1.311,1.311h5.246a1.311,1.311,0,0,0,1.311-1.311V289.311A1.311,1.311,0,0,0,182.557,288Zm3.934,26.229h-2.623V290.623h2.623Z" transform="translate(-149.771 -243.411)" fill="#00074e"/>
          <path id="Trazado_828758" data-name="Trazado 828758" d="M113.311,320A1.311,1.311,0,0,0,112,321.311v20.983a1.311,1.311,0,0,0,1.311,1.311h5.246a1.311,1.311,0,0,0,1.311-1.311V321.311A1.311,1.311,0,0,0,118.557,320Zm3.934,20.983h-2.623v-18.36h2.623Z" transform="translate(-96.263 -270.165)" fill="#00074e"/>
          <path id="Trazado_828759" data-name="Trazado 828759" d="M49.311,368A1.311,1.311,0,0,0,48,369.311v13.115a1.311,1.311,0,0,0,1.311,1.311h5.246a1.311,1.311,0,0,0,1.311-1.311V369.311A1.311,1.311,0,0,0,54.557,368Zm3.934,13.115H50.623V370.623h2.623Z" transform="translate(-42.754 -310.296)" fill="#00074e"/>
          <path id="Trazado_828760" data-name="Trazado 828760" d="M18.623,288H16v32.786a1.311,1.311,0,0,0,1.311,1.311H55.344v-2.623H18.623Z" transform="translate(-16 -243.411)" fill="#00074e"/>
          <path id="Trazado_828761" data-name="Trazado 828761" d="M352,48h10.492v2.623H352Z" transform="translate(-296.919 -42.754)" fill="#00074e"/>
          <path id="Trazado_828762" data-name="Trazado 828762" d="M352,80h10.492v2.623H352Z" transform="translate(-296.919 -69.508)" fill="#00074e"/>
          <path id="Trazado_828763" data-name="Trazado 828763" d="M352,112h10.492v2.623H352Z" transform="translate(-296.919 -96.263)" fill="#00074e"/>
          <path id="Trazado_828764" data-name="Trazado 828764" d="M432,80h10.492v2.623H432Z" transform="translate(-363.804 -69.508)" fill="#00074e"/>
          <path id="Trazado_828765" data-name="Trazado 828765" d="M432,112h10.492v2.623H432Z" transform="translate(-363.804 -96.263)" fill="#00074e"/>
          <path id="Trazado_828766" data-name="Trazado 828766" d="M352,240h10.492v2.623H352Z" transform="translate(-296.919 -203.279)" fill="#00074e"/>
          <path id="Trazado_828767" data-name="Trazado 828767" d="M432,240h10.492v2.623H432Z" transform="translate(-363.804 -203.279)" fill="#00074e"/>
          <path id="Trazado_828768" data-name="Trazado 828768" d="M352,208h10.492v2.623H352Z" transform="translate(-296.919 -176.525)" fill="#00074e"/>
          <path id="Trazado_828769" data-name="Trazado 828769" d="M432,208h10.492v2.623H432Z" transform="translate(-363.804 -176.525)" fill="#00074e"/>
          <path id="Trazado_828770" data-name="Trazado 828770" d="M352,176h10.492v2.623H352Z" transform="translate(-296.919 -149.771)" fill="#00074e"/>
          <path id="Trazado_828771" data-name="Trazado 828771" d="M432,176h10.492v2.623H432Z" transform="translate(-363.804 -149.771)" fill="#00074e"/>
          <path id="Trazado_828772" data-name="Trazado 828772" d="M307.911,290.723a1.312,1.312,0,0,0-1.429.284l-13.5,13.5-5.63-5.63a1.311,1.311,0,0,0-1.855,0l-7.869,7.869a1.311,1.311,0,0,0-.384.927v11.8h-2.623V288H272v32.786a1.311,1.311,0,0,0,1.311,1.311h35.409V291.934a1.312,1.312,0,0,0-.81-1.212Zm-21.485,10.935,5.63,5.63a1.311,1.311,0,0,0,1.855,0L306.1,295.1v13.34l-.384-.384a1.311,1.311,0,0,0-1.855,0l-5.63,5.63-3.007-3.007a1.311,1.311,0,0,0-1.855,0l-3.007,3.007-5.63-5.63a1.311,1.311,0,0,0-1.855,0l-3.007,3.007v-2.848Zm-6.557,17.817v-4.7l3.934-3.934,5.63,5.63a1.311,1.311,0,0,0,1.855,0l3.007-3.007,3.007,3.007a1.311,1.311,0,0,0,1.855,0l5.63-5.63,1.311,1.311v7.326Z" transform="translate(-230.033 -243.411)" fill="#00074e"/>
        </g>
      </g>
    </g>
    <path id="Rectángulo_381830" data-name="Rectángulo 381830" d="M0,0H38a0,0,0,0,1,0,0V32.235A18.765,18.765,0,0,1,19.235,51h0A19.235,19.235,0,0,1,0,31.765V0A0,0,0,0,1,0,0Z" transform="translate(189 8924)" fill="#8054f8"/>
    <path id="Trazado_828715" data-name="Trazado 828715" d="M325.19,448.2a3.777,3.777,0,0,0,1.11,2.679l3.835,3.834-3.835,3.834a3.79,3.79,0,0,0,5.359,5.359l3.834-3.834,3.834,3.834a3.789,3.789,0,0,0,5.358-5.359l-3.834-3.834,3.834-3.834a3.789,3.789,0,0,0,0-5.358h0a3.789,3.789,0,0,0-5.358,0l-3.834,3.834-3.834-3.834a3.791,3.791,0,0,0-5.359,0h0a3.777,3.777,0,0,0-1.11,2.679Z" transform="translate(-118.794 8521.592)" fill="#98d1ca"/>
    <g id="Sustracción_14" data-name="Sustracción 14" transform="translate(339.622 9030.352) rotate(-90)" fill="none">
      <path d="M59.694,30.378H0v-.19A30.726,30.726,0,0,1,.606,24.1,30.208,30.208,0,0,1,13.16,5.156,29.637,29.637,0,0,1,35.863.613a29.357,29.357,0,0,1,5.6,1.759,29.746,29.746,0,0,1,5.07,2.783A30.231,30.231,0,0,1,59.088,24.1a30.719,30.719,0,0,1,.607,6.084c0,.063,0,.123,0,.185v0Z" stroke="none"/>
      <path d="M 56.5531005859375 27.37778091430664 C 56.46160125732422 26.47622108459473 56.3261604309082 25.58109283447266 56.14733505249023 24.69819259643555 C 55.79378890991211 22.94912528991699 55.26693344116211 21.23299217224121 54.5802116394043 19.59468078613281 C 53.90617752075195 17.98203659057617 53.07256698608398 16.42858123779297 52.10166549682617 14.97619247436523 C 51.13925552368164 13.53490352630615 50.03494644165039 12.18059253692627 48.82024383544922 10.95173645019531 C 47.60350036621094 9.721814155578613 46.26504516601562 8.605003356933594 44.84209060668945 7.63234806060791 C 43.41056823730469 6.65385913848877 41.87707901000977 5.812014579772949 40.28305435180664 5.129714488983154 C 38.67238998413086 4.439481258392334 36.98055648803711 3.908403396606445 35.25268936157227 3.550825595855713 C 33.49213409423828 3.185325622558594 31.67361259460449 3.000003576278687 29.84765625 3.000003576278687 C 28.02169990539551 3.000003576278687 26.20317840576172 3.185325622558594 24.44060134887695 3.551247835159302 C 22.71923446655273 3.907381296157837 21.0265007019043 4.438703536987305 19.40970039367676 5.130336761474609 C 17.81623458862305 5.812192440032959 16.28330039978027 6.65380334854126 14.85150051116943 7.633159160614014 C 13.4278564453125 8.605270385742188 12.09023380279541 9.721369743347168 10.87494468688965 10.95131492614746 C 9.657378196716309 12.1825590133667 8.552656173706055 13.5367259979248 7.590867519378662 14.97708129882812 C 6.621067523956299 16.42830276489258 5.787300586700439 17.98205947875977 5.112634181976318 19.59539222717285 C 4.426534175872803 21.23572540283203 3.899734020233154 22.95255851745605 3.546711921691895 24.69901466369629 C 3.368228912353516 25.58074569702148 3.23302435874939 26.47576522827148 3.141726016998291 27.37778091430664 L 56.5531005859375 27.37778091430664 M 59.69367980957031 30.37778091430664 L 6.944444521650439e-07 30.37778091430664 C 6.944444521650439e-07 30.34637069702148 6.944444521650439e-07 30.3149471282959 6.944444521650439e-07 30.28353691101074 C 6.944444521650439e-07 30.25045967102051 6.944444521650439e-07 30.21904754638672 6.944444521650439e-07 30.18763732910156 C 6.944444521650439e-07 28.14003753662109 0.2035784721374512 26.09353637695312 0.6063562631607056 24.10380363464355 C 0.9981895685195923 22.16533660888672 1.583745121955872 20.25773620605469 2.34497857093811 18.43777084350586 C 3.093611717224121 16.64755821228027 4.019567489624023 14.92184829711914 5.096556186676025 13.31022548675537 C 6.164245128631592 11.71128082275391 7.390634059906006 10.20823669433594 8.741800308227539 8.841880798339844 C 10.09296703338623 7.474425792694092 11.57930088043213 6.234848022460938 13.15976715087891 5.155647754669189 C 14.75445652008057 4.064881324768066 16.45969009399414 3.129547834396362 18.22949981689453 2.372236728668213 C 20.02942276000977 1.602259039878845 21.91470146179199 1.010292410850525 23.83281135559082 0.613459050655365 C 27.76262283325195 -0.2023864984512329 31.93378257751465 -0.2021621912717819 35.86249923706055 0.613459050655365 C 37.78006744384766 1.010292410850525 39.66535568237305 1.601147890090942 41.4647216796875 2.372236728668213 C 43.23397827148438 3.129547834396362 44.93922424316406 4.064881324768066 46.53499984741211 5.155647754669189 C 48.11383438110352 6.234848022460938 49.60016632080078 7.474425792694092 50.95296859741211 8.841880798339844 C 52.3035774230957 10.20823669433594 53.52888870239258 11.71128082275391 54.59657669067383 13.31022548675537 C 55.67465591430664 14.92294788360596 56.60061264038086 16.64921379089355 57.34816741943359 18.43777084350586 C 58.11102294921875 20.25773620605469 58.6960334777832 22.16533660888672 59.08786773681641 24.10380363464355 C 59.49064636230469 26.09242630004883 59.6953125 28.14003753662109 59.6953125 30.18763732910156 C 59.6953125 30.25045967102051 59.69367980957031 30.31109237670898 59.69367980957031 30.37282562255859 L 59.69367980957031 30.37778091430664 Z" stroke="none" fill="#8054f8"/>
    </g>
  </g>
</svg>
