<svg id="_4" data-name="4" xmlns="http://www.w3.org/2000/svg" xmlns:xlink="http://www.w3.org/1999/xlink" width="414.958" height="366.504" viewBox="0 0 414.958 366.504">
  <defs>
    <clipPath id="clip-path">
      <rect id="Rectángulo_381702" data-name="Rectángulo 381702" width="414.958" height="366.504" fill="none"/>
    </clipPath>
    <clipPath id="clip-path-3">
      <rect id="Rectángulo_381649" data-name="Rectángulo 381649" width="400.878" height="359.475" fill="none"/>
    </clipPath>
    <clipPath id="clip-path-5">
      <rect id="Rectángulo_381653" data-name="Rectángulo 381653" width="302.786" height="250.892" transform="translate(49.914 68.386)" fill="none"/>
    </clipPath>
    <clipPath id="clip-path-9">
      <path id="Trazado_828575" data-name="Trazado 828575" d="M240.71,207.034s-6.252,3.806-6.8,13.592,1.631,35.066,2.99,39.144,8.155,8.155,13.32,7.068c0,0,2.175,23.921,4.621,23.378s15.223-17.67,15.767-22.563,1.359-20.659,1.359-20.659a173.281,173.281,0,0,0,1.9-22.29c0-10.059-2.446-18.214-11.145-21.2a24.212,24.212,0,0,0-7.909-1.383,23.765,23.765,0,0,0-14.11,4.916" fill="none"/>
    </clipPath>
  </defs>
  <g id="Grupo_1076029" data-name="Grupo 1076029" clip-path="url(#clip-path)">
    <g id="Grupo_1076007" data-name="Grupo 1076007">
      <g id="Grupo_1076006" data-name="Grupo 1076006" clip-path="url(#clip-path)">
        <path id="Trazado_828466" data-name="Trazado 828466" d="M325.193,22.4s-46.164-35.357-104.21-17.23S140.006,74.509,107.507,110.234c-17.019,18.709-42.784,26.215-63.239,40.845-65.4,46.78-52.377,146.948.321,183.249,45.621,31.425,101.449,33.118,173.206,6.645s123.194-42.629,166-113.357S382.207,70.57,325.193,22.4" fill="#b085ba"/>
        <g id="Grupo_1076005" data-name="Grupo 1076005" opacity="0.8">
          <g id="Grupo_1076004" data-name="Grupo 1076004">
            <g id="Grupo_1076003" data-name="Grupo 1076003" clip-path="url(#clip-path-3)">
              <path id="Trazado_828467" data-name="Trazado 828467" d="M325.193,22.4s-46.164-35.357-104.21-17.23S140.006,74.509,107.507,110.234c-17.019,18.709-42.784,26.215-63.239,40.845-65.4,46.78-52.377,146.948.321,183.249,45.621,31.425,101.449,33.118,173.206,6.645s123.194-42.629,166-113.357S382.207,70.57,325.193,22.4" fill="#fff"/>
            </g>
          </g>
        </g>
      </g>
    </g>
    <rect id="Rectángulo_381651" data-name="Rectángulo 381651" width="302.786" height="250.893" transform="translate(49.914 68.385)" fill="#b085ba"/>
    <g id="Grupo_1076012" data-name="Grupo 1076012">
      <g id="Grupo_1076011" data-name="Grupo 1076011" clip-path="url(#clip-path)">
        <g id="Grupo_1076010" data-name="Grupo 1076010" opacity="0.5">
          <g id="Grupo_1076009" data-name="Grupo 1076009">
            <g id="Grupo_1076008" data-name="Grupo 1076008" clip-path="url(#clip-path-5)">
              <rect id="Rectángulo_381652" data-name="Rectángulo 381652" width="302.786" height="250.893" transform="translate(49.914 68.385)" fill="#fff"/>
            </g>
          </g>
        </g>
      </g>
    </g>
    <rect id="Rectángulo_381655" data-name="Rectángulo 381655" width="282.229" height="128.463" transform="translate(57.195 113.995)" fill="#fff"/>
    <line id="Línea_4053" data-name="Línea 4053" x2="262.908" transform="translate(66.139 223.986)" fill="none" stroke="#9470c6" stroke-miterlimit="10" stroke-width="0.5"/>
    <line id="Línea_4054" data-name="Línea 4054" y1="2.578" transform="translate(66.139 221.408)" fill="none" stroke="#9470c6" stroke-miterlimit="10" stroke-width="0.5"/>
    <line id="Línea_4055" data-name="Línea 4055" y1="2.578" transform="translate(79.976 221.408)" fill="none" stroke="#9470c6" stroke-miterlimit="10" stroke-width="0.5"/>
    <line id="Línea_4056" data-name="Línea 4056" y1="2.578" transform="translate(93.813 221.408)" fill="none" stroke="#9470c6" stroke-miterlimit="10" stroke-width="0.5"/>
    <line id="Línea_4057" data-name="Línea 4057" y1="2.578" transform="translate(107.651 221.408)" fill="none" stroke="#9470c6" stroke-miterlimit="10" stroke-width="0.5"/>
    <line id="Línea_4058" data-name="Línea 4058" y1="2.578" transform="translate(121.488 221.408)" fill="none" stroke="#9470c6" stroke-miterlimit="10" stroke-width="0.5"/>
    <line id="Línea_4059" data-name="Línea 4059" y1="2.578" transform="translate(135.325 221.408)" fill="none" stroke="#9470c6" stroke-miterlimit="10" stroke-width="0.5"/>
    <line id="Línea_4060" data-name="Línea 4060" y1="2.578" transform="translate(149.163 221.408)" fill="none" stroke="#9470c6" stroke-miterlimit="10" stroke-width="0.5"/>
    <line id="Línea_4061" data-name="Línea 4061" y1="2.578" transform="translate(163 221.408)" fill="none" stroke="#9470c6" stroke-miterlimit="10" stroke-width="0.5"/>
    <line id="Línea_4062" data-name="Línea 4062" y1="2.578" transform="translate(176.837 221.408)" fill="none" stroke="#9470c6" stroke-miterlimit="10" stroke-width="0.5"/>
    <line id="Línea_4063" data-name="Línea 4063" y1="2.578" transform="translate(190.674 221.408)" fill="none" stroke="#9470c6" stroke-miterlimit="10" stroke-width="0.5"/>
    <line id="Línea_4064" data-name="Línea 4064" y1="2.578" transform="translate(204.512 221.408)" fill="none" stroke="#9470c6" stroke-miterlimit="10" stroke-width="0.5"/>
    <line id="Línea_4065" data-name="Línea 4065" y1="2.578" transform="translate(218.349 221.408)" fill="none" stroke="#9470c6" stroke-miterlimit="10" stroke-width="0.5"/>
    <line id="Línea_4066" data-name="Línea 4066" y1="2.578" transform="translate(232.186 221.408)" fill="none" stroke="#9470c6" stroke-miterlimit="10" stroke-width="0.5"/>
    <line id="Línea_4067" data-name="Línea 4067" y1="2.578" transform="translate(246.023 221.408)" fill="none" stroke="#9470c6" stroke-miterlimit="10" stroke-width="0.5"/>
    <line id="Línea_4068" data-name="Línea 4068" y1="2.578" transform="translate(259.861 221.408)" fill="none" stroke="#9470c6" stroke-miterlimit="10" stroke-width="0.5"/>
    <line id="Línea_4069" data-name="Línea 4069" y1="2.578" transform="translate(273.698 221.408)" fill="none" stroke="#9470c6" stroke-miterlimit="10" stroke-width="0.5"/>
    <line id="Línea_4070" data-name="Línea 4070" y1="2.578" transform="translate(287.535 221.408)" fill="none" stroke="#9470c6" stroke-miterlimit="10" stroke-width="0.5"/>
    <line id="Línea_4071" data-name="Línea 4071" y1="2.578" transform="translate(301.372 221.408)" fill="none" stroke="#9470c6" stroke-miterlimit="10" stroke-width="0.5"/>
    <line id="Línea_4072" data-name="Línea 4072" y1="2.578" transform="translate(315.21 221.408)" fill="none" stroke="#9470c6" stroke-miterlimit="10" stroke-width="0.5"/>
    <line id="Línea_4073" data-name="Línea 4073" y1="2.578" transform="translate(329.047 221.408)" fill="none" stroke="#9470c6" stroke-miterlimit="10" stroke-width="0.5"/>
    <line id="Línea_4074" data-name="Línea 4074" y1="103.125" transform="translate(66.139 120.861)" fill="none" stroke="#9470c6" stroke-miterlimit="10" stroke-width="0.5"/>
    <line id="Línea_4075" data-name="Línea 4075" x2="6.573" transform="translate(66.139 223.986)" fill="none" stroke="#9470c6" stroke-miterlimit="10" stroke-width="0.5"/>
    <line id="Línea_4076" data-name="Línea 4076" x1="7.255" transform="translate(58.884 203.361)" fill="none" stroke="#9470c6" stroke-miterlimit="10" stroke-width="0.5"/>
    <line id="Línea_4077" data-name="Línea 4077" x1="7.255" transform="translate(58.884 182.736)" fill="none" stroke="#9470c6" stroke-miterlimit="10" stroke-width="0.5"/>
    <line id="Línea_4078" data-name="Línea 4078" x1="7.255" transform="translate(58.884 162.111)" fill="none" stroke="#9470c6" stroke-miterlimit="10" stroke-width="0.5"/>
    <line id="Línea_4079" data-name="Línea 4079" x1="7.255" transform="translate(58.884 141.486)" fill="none" stroke="#9470c6" stroke-miterlimit="10" stroke-width="0.5"/>
    <line id="Línea_4080" data-name="Línea 4080" x1="7.255" transform="translate(58.884 120.861)" fill="none" stroke="#9470c6" stroke-miterlimit="10" stroke-width="0.5"/>
    <line id="Línea_4081" data-name="Línea 4081" x1="13.837" y2="61.875" transform="translate(73.058 141.486)" fill="none" stroke="#b085ba" stroke-linecap="round" stroke-miterlimit="10" stroke-width="2"/>
    <line id="Línea_4082" data-name="Línea 4082" x1="13.837" y1="35.063" transform="translate(86.895 141.485)" fill="none" stroke="#b085ba" stroke-linecap="round" stroke-miterlimit="10" stroke-width="2"/>
    <line id="Línea_4083" data-name="Línea 4083" x1="13.837" y2="14.438" transform="translate(100.732 162.111)" fill="none" stroke="#b085ba" stroke-linecap="round" stroke-miterlimit="10" stroke-width="2"/>
    <line id="Línea_4084" data-name="Línea 4084" x1="13.837" y1="37.125" transform="translate(114.57 162.111)" fill="none" stroke="#b085ba" stroke-linecap="round" stroke-miterlimit="10" stroke-width="2"/>
    <line id="Línea_4085" data-name="Línea 4085" x1="13.837" y2="57.75" transform="translate(128.407 141.486)" fill="none" stroke="#b085ba" stroke-linecap="round" stroke-miterlimit="10" stroke-width="2"/>
    <line id="Línea_4086" data-name="Línea 4086" x1="13.837" y2="20.625" transform="translate(142.244 120.861)" fill="none" stroke="#b085ba" stroke-linecap="round" stroke-miterlimit="10" stroke-width="2"/>
    <line id="Línea_4087" data-name="Línea 4087" x1="13.837" y1="92.813" transform="translate(156.081 120.86)" fill="none" stroke="#b085ba" stroke-linecap="round" stroke-miterlimit="10" stroke-width="2"/>
    <line id="Línea_4088" data-name="Línea 4088" x1="13.837" y2="6.188" transform="translate(169.919 207.486)" fill="none" stroke="#b085ba" stroke-linecap="round" stroke-miterlimit="10" stroke-width="2"/>
    <line id="Línea_4089" data-name="Línea 4089" x1="13.837" y2="2.062" transform="translate(183.756 205.423)" fill="none" stroke="#b085ba" stroke-linecap="round" stroke-miterlimit="10" stroke-width="2"/>
    <line id="Línea_4090" data-name="Línea 4090" x1="13.837" y2="6.187" transform="translate(197.593 199.236)" fill="none" stroke="#b085ba" stroke-linecap="round" stroke-miterlimit="10" stroke-width="2"/>
    <line id="Línea_4091" data-name="Línea 4091" x1="13.837" y2="8.25" transform="translate(211.43 190.986)" fill="none" stroke="#b085ba" stroke-linecap="round" stroke-miterlimit="10" stroke-width="2"/>
    <line id="Línea_4092" data-name="Línea 4092" x1="13.837" y1="4.125" transform="translate(225.268 190.986)" fill="none" stroke="#b085ba" stroke-linecap="round" stroke-miterlimit="10" stroke-width="2"/>
    <line id="Línea_4093" data-name="Línea 4093" x1="13.837" y1="8.25" transform="translate(239.105 195.111)" fill="none" stroke="#b085ba" stroke-linecap="round" stroke-miterlimit="10" stroke-width="2"/>
    <line id="Línea_4094" data-name="Línea 4094" x1="13.837" y2="43.313" transform="translate(252.942 160.048)" fill="none" stroke="#b085ba" stroke-linecap="round" stroke-miterlimit="10" stroke-width="2"/>
    <line id="Línea_4095" data-name="Línea 4095" x1="13.837" y2="6.187" transform="translate(266.78 153.861)" fill="none" stroke="#b085ba" stroke-linecap="round" stroke-miterlimit="10" stroke-width="2"/>
    <line id="Línea_4096" data-name="Línea 4096" x1="13.837" y2="8.25" transform="translate(280.617 145.611)" fill="none" stroke="#b085ba" stroke-linecap="round" stroke-miterlimit="10" stroke-width="2"/>
    <line id="Línea_4097" data-name="Línea 4097" x1="13.837" y1="8.25" transform="translate(294.454 145.611)" fill="none" stroke="#b085ba" stroke-linecap="round" stroke-miterlimit="10" stroke-width="2"/>
    <line id="Línea_4098" data-name="Línea 4098" x1="13.837" y1="8.25" transform="translate(308.291 153.861)" fill="none" stroke="#b085ba" stroke-linecap="round" stroke-miterlimit="10" stroke-width="2"/>
    <g id="Grupo_1076014" data-name="Grupo 1076014">
      <g id="Grupo_1076013" data-name="Grupo 1076013" clip-path="url(#clip-path)">
        <path id="Trazado_828468" data-name="Trazado 828468" d="M73.058,200.915h0a2.446,2.446,0,1,1-2.447,2.446,2.446,2.446,0,0,1,2.447-2.446" fill="#fff"/>
        <path id="Trazado_828469" data-name="Trazado 828469" d="M73.058,200.915h0a2.446,2.446,0,1,1-2.447,2.446A2.446,2.446,0,0,1,73.058,200.915Z" fill="none" stroke="#b085ba" stroke-linecap="round" stroke-linejoin="round" stroke-width="1"/>
        <path id="Trazado_828470" data-name="Trazado 828470" d="M86.895,139.04h0a2.446,2.446,0,1,1-2.446,2.446,2.446,2.446,0,0,1,2.446-2.446" fill="#fff"/>
        <path id="Trazado_828471" data-name="Trazado 828471" d="M86.895,139.04h0a2.446,2.446,0,1,1-2.446,2.446A2.446,2.446,0,0,1,86.895,139.04Z" fill="none" stroke="#b085ba" stroke-linecap="round" stroke-linejoin="round" stroke-width="1"/>
        <path id="Trazado_828472" data-name="Trazado 828472" d="M100.732,174.1h0a2.445,2.445,0,1,1-2.446,2.447,2.446,2.446,0,0,1,2.446-2.447" fill="#fff"/>
        <path id="Trazado_828473" data-name="Trazado 828473" d="M100.732,174.1h0a2.445,2.445,0,1,1-2.446,2.447A2.446,2.446,0,0,1,100.732,174.1Z" fill="none" stroke="#b085ba" stroke-linecap="round" stroke-linejoin="round" stroke-width="1"/>
        <path id="Trazado_828474" data-name="Trazado 828474" d="M114.569,159.665h0a2.446,2.446,0,1,1-2.446,2.446,2.446,2.446,0,0,1,2.446-2.446" fill="#fff"/>
        <path id="Trazado_828475" data-name="Trazado 828475" d="M114.569,159.665h0a2.446,2.446,0,1,1-2.446,2.446A2.446,2.446,0,0,1,114.569,159.665Z" fill="none" stroke="#b085ba" stroke-linecap="round" stroke-linejoin="round" stroke-width="1"/>
        <path id="Trazado_828476" data-name="Trazado 828476" d="M128.407,196.79h0a2.446,2.446,0,1,1-2.446,2.446,2.446,2.446,0,0,1,2.446-2.446" fill="#fff"/>
        <path id="Trazado_828477" data-name="Trazado 828477" d="M128.407,196.79h0a2.446,2.446,0,1,1-2.446,2.446A2.446,2.446,0,0,1,128.407,196.79Z" fill="none" stroke="#b085ba" stroke-linecap="round" stroke-linejoin="round" stroke-width="1"/>
        <path id="Trazado_828478" data-name="Trazado 828478" d="M142.244,139.04h0a2.446,2.446,0,1,1-2.446,2.446,2.446,2.446,0,0,1,2.446-2.446" fill="#fff"/>
        <path id="Trazado_828479" data-name="Trazado 828479" d="M142.244,139.04h0a2.446,2.446,0,1,1-2.446,2.446A2.446,2.446,0,0,1,142.244,139.04Z" fill="none" stroke="#b085ba" stroke-linecap="round" stroke-linejoin="round" stroke-width="1"/>
        <path id="Trazado_828480" data-name="Trazado 828480" d="M156.081,118.415h0a2.445,2.445,0,1,1-2.446,2.446,2.446,2.446,0,0,1,2.446-2.446" fill="#40278c"/>
        <path id="Trazado_828481" data-name="Trazado 828481" d="M156.081,118.415h0a2.445,2.445,0,1,1-2.446,2.446A2.446,2.446,0,0,1,156.081,118.415Z" fill="none" stroke="#b085ba" stroke-linecap="round" stroke-linejoin="round" stroke-width="1"/>
        <path id="Trazado_828482" data-name="Trazado 828482" d="M169.918,211.228h0a2.446,2.446,0,1,1-2.446,2.446,2.446,2.446,0,0,1,2.446-2.446" fill="#fff"/>
        <path id="Trazado_828483" data-name="Trazado 828483" d="M169.918,211.228h0a2.446,2.446,0,1,1-2.446,2.446A2.446,2.446,0,0,1,169.918,211.228Z" fill="none" stroke="#b085ba" stroke-linecap="round" stroke-linejoin="round" stroke-width="1"/>
        <path id="Trazado_828484" data-name="Trazado 828484" d="M183.756,205.04h0a2.446,2.446,0,1,1-2.446,2.446,2.446,2.446,0,0,1,2.446-2.446" fill="#fff"/>
        <path id="Trazado_828485" data-name="Trazado 828485" d="M183.756,205.04h0a2.446,2.446,0,1,1-2.446,2.446A2.446,2.446,0,0,1,183.756,205.04Z" fill="none" stroke="#b085ba" stroke-linecap="round" stroke-linejoin="round" stroke-width="1"/>
        <path id="Trazado_828486" data-name="Trazado 828486" d="M197.593,202.978h0a2.446,2.446,0,1,1-2.446,2.446,2.446,2.446,0,0,1,2.446-2.446" fill="#fff"/>
        <path id="Trazado_828487" data-name="Trazado 828487" d="M197.593,202.978h0a2.446,2.446,0,1,1-2.446,2.446A2.446,2.446,0,0,1,197.593,202.978Z" fill="none" stroke="#b085ba" stroke-linecap="round" stroke-linejoin="round" stroke-width="1"/>
        <path id="Trazado_828488" data-name="Trazado 828488" d="M211.43,196.79h0a2.446,2.446,0,1,1-2.446,2.446,2.446,2.446,0,0,1,2.446-2.446" fill="#fff"/>
        <path id="Trazado_828489" data-name="Trazado 828489" d="M211.43,196.79h0a2.446,2.446,0,1,1-2.446,2.446A2.446,2.446,0,0,1,211.43,196.79Z" fill="none" stroke="#b085ba" stroke-linecap="round" stroke-linejoin="round" stroke-width="1"/>
        <path id="Trazado_828490" data-name="Trazado 828490" d="M225.268,188.54h0a2.446,2.446,0,1,1-2.447,2.446,2.447,2.447,0,0,1,2.447-2.446" fill="#fff"/>
        <path id="Trazado_828491" data-name="Trazado 828491" d="M225.268,188.54h0a2.446,2.446,0,1,1-2.447,2.446A2.447,2.447,0,0,1,225.268,188.54Z" fill="none" stroke="#b085ba" stroke-linecap="round" stroke-linejoin="round" stroke-width="1"/>
        <path id="Trazado_828492" data-name="Trazado 828492" d="M239.1,192.665h0a2.446,2.446,0,1,1-2.446,2.446,2.446,2.446,0,0,1,2.446-2.446" fill="#fff"/>
        <path id="Trazado_828493" data-name="Trazado 828493" d="M239.1,192.665h0a2.446,2.446,0,1,1-2.446,2.446A2.446,2.446,0,0,1,239.1,192.665Z" fill="none" stroke="#b085ba" stroke-linecap="round" stroke-linejoin="round" stroke-width="1"/>
        <path id="Trazado_828494" data-name="Trazado 828494" d="M252.942,200.915h0a2.446,2.446,0,1,1-2.446,2.446,2.446,2.446,0,0,1,2.446-2.446" fill="#fff"/>
        <path id="Trazado_828495" data-name="Trazado 828495" d="M252.942,200.915h0a2.446,2.446,0,1,1-2.446,2.446A2.446,2.446,0,0,1,252.942,200.915Z" fill="none" stroke="#b085ba" stroke-linecap="round" stroke-linejoin="round" stroke-width="1"/>
        <path id="Trazado_828496" data-name="Trazado 828496" d="M266.779,157.6h0a2.445,2.445,0,1,1-2.446,2.447,2.446,2.446,0,0,1,2.446-2.447" fill="#fff"/>
        <path id="Trazado_828497" data-name="Trazado 828497" d="M266.779,157.6h0a2.445,2.445,0,1,1-2.446,2.447A2.446,2.446,0,0,1,266.779,157.6Z" fill="none" stroke="#b085ba" stroke-linecap="round" stroke-linejoin="round" stroke-width="1"/>
        <path id="Trazado_828498" data-name="Trazado 828498" d="M280.617,151.415h0a2.446,2.446,0,1,1-2.446,2.446,2.446,2.446,0,0,1,2.446-2.446" fill="#fff"/>
        <path id="Trazado_828499" data-name="Trazado 828499" d="M280.617,151.415h0a2.446,2.446,0,1,1-2.446,2.446A2.446,2.446,0,0,1,280.617,151.415Z" fill="none" stroke="#b085ba" stroke-linecap="round" stroke-linejoin="round" stroke-width="1"/>
        <path id="Trazado_828500" data-name="Trazado 828500" d="M294.454,143.165h0a2.446,2.446,0,1,1-2.446,2.446,2.446,2.446,0,0,1,2.446-2.446" fill="#fff"/>
        <path id="Trazado_828501" data-name="Trazado 828501" d="M294.454,143.165h0a2.446,2.446,0,1,1-2.446,2.446A2.446,2.446,0,0,1,294.454,143.165Z" fill="none" stroke="#b085ba" stroke-linecap="round" stroke-linejoin="round" stroke-width="1"/>
        <path id="Trazado_828502" data-name="Trazado 828502" d="M308.291,151.415h0a2.446,2.446,0,1,1-2.446,2.446,2.446,2.446,0,0,1,2.446-2.446" fill="#fff"/>
        <path id="Trazado_828503" data-name="Trazado 828503" d="M308.291,151.415h0a2.446,2.446,0,1,1-2.446,2.446A2.446,2.446,0,0,1,308.291,151.415Z" fill="none" stroke="#b085ba" stroke-linecap="round" stroke-linejoin="round" stroke-width="1"/>
        <path id="Trazado_828504" data-name="Trazado 828504" d="M322.128,159.665h0a2.446,2.446,0,1,1-2.446,2.446,2.446,2.446,0,0,1,2.446-2.446" fill="#fff"/>
        <path id="Trazado_828505" data-name="Trazado 828505" d="M322.128,159.665h0a2.446,2.446,0,1,1-2.446,2.446A2.446,2.446,0,0,1,322.128,159.665Z" fill="none" stroke="#b085ba" stroke-linecap="round" stroke-linejoin="round" stroke-width="1"/>
        <rect id="Rectángulo_381656" data-name="Rectángulo 381656" width="7.824" height="250.893" transform="translate(344.876 68.385)" fill="#ddd1ed"/>
        <rect id="Rectángulo_381657" data-name="Rectángulo 381657" width="7.824" height="63.907" transform="translate(344.876 99.335)" fill="#8f69c4"/>
        <rect id="Rectángulo_381658" data-name="Rectángulo 381658" width="302.786" height="15.359" transform="translate(49.914 68.385)" fill="#40278c"/>
        <path id="Trazado_828506" data-name="Trazado 828506" d="M125.664,100.732H49.913V88.415h75.751a2.017,2.017,0,0,1,2.016,2.016v8.285a2.017,2.017,0,0,1-2.016,2.016" fill="#40278c"/>
        <path id="Trazado_828507" data-name="Trazado 828507" d="M62.09,95.514l.8-5.324h1.639v7.5H63.418V92.311L62.6,97.689H61.49l-.878-5.3v5.3H59.583v-7.5h1.639Z" fill="#b085ba"/>
        <path id="Trazado_828508" data-name="Trazado 828508" d="M69.206,97.689H68.017l-.2-1.361H66.367l-.2,1.361H65.082l1.2-7.5h1.725ZM66.517,95.31h1.135l-.567-3.792Z" fill="#b085ba"/>
        <path id="Trazado_828509" data-name="Trazado 828509" d="M72.217,97.688a2.318,2.318,0,0,1-.106-.921V95.589c0-.7-.236-.954-.772-.954h-.407v3.053H69.754v-7.5h1.778c1.221,0,1.746.568,1.746,1.725V92.5a1.494,1.494,0,0,1-.771,1.521c.589.246.782.814.782,1.6v1.157a2.2,2.2,0,0,0,.128.91Zm-1.285-6.427v2.3h.461c.439,0,.707-.193.707-.793v-.739c0-.535-.182-.771-.6-.771Z" fill="#b085ba"/>
        <path id="Trazado_828510" data-name="Trazado 828510" d="M77.479,94.893v1c0,1.2-.6,1.886-1.757,1.886s-1.756-.686-1.756-1.886v-3.9c0-1.2.6-1.885,1.756-1.885s1.757.685,1.757,1.885v.728H76.365v-.8c0-.535-.236-.739-.611-.739s-.61.2-.61.739v4.049c0,.536.235.728.61.728s.611-.192.611-.728V94.893Z" fill="#b085ba"/>
        <path id="Trazado_828511" data-name="Trazado 828511" d="M79.376,97.689H78.2v-7.5h1.178V93.4h1.339V90.191h1.2v7.5h-1.2V94.475H79.376Z" fill="#b085ba"/>
        <rect id="Rectángulo_381659" data-name="Rectángulo 381659" width="194.667" height="8.667" transform="translate(69.831 71.004)" fill="#eee8f6"/>
        <rect id="Rectángulo_381660" data-name="Rectángulo 381660" width="13.171" height="6.055" transform="translate(66.29 226.821)" fill="#a688d0"/>
        <rect id="Rectángulo_381661" data-name="Rectángulo 381661" width="13.17" height="6.055" transform="translate(80.145 226.821)" fill="#642fad"/>
        <rect id="Rectángulo_381662" data-name="Rectángulo 381662" width="13.171" height="6.055" transform="translate(93.998 226.821)" fill="#a688d0"/>
        <rect id="Rectángulo_381663" data-name="Rectángulo 381663" width="13.171" height="6.055" transform="translate(107.852 226.821)" fill="#642fad"/>
        <rect id="Rectángulo_381664" data-name="Rectángulo 381664" width="13.17" height="6.055" transform="translate(121.707 226.821)" fill="#a688d0"/>
        <rect id="Rectángulo_381665" data-name="Rectángulo 381665" width="13.171" height="6.055" transform="translate(135.561 226.821)" fill="#642fad"/>
        <rect id="Rectángulo_381666" data-name="Rectángulo 381666" width="13.171" height="6.055" transform="translate(149.415 226.821)" fill="#a688d0"/>
        <rect id="Rectángulo_381667" data-name="Rectángulo 381667" width="13.171" height="6.055" transform="translate(163.269 226.821)" fill="#642fad"/>
        <rect id="Rectángulo_381668" data-name="Rectángulo 381668" width="13.171" height="6.055" transform="translate(177.123 226.821)" fill="#a688d0"/>
        <rect id="Rectángulo_381669" data-name="Rectángulo 381669" width="13.171" height="6.055" transform="translate(190.978 226.821)" fill="#642fad"/>
        <rect id="Rectángulo_381670" data-name="Rectángulo 381670" width="13.171" height="6.055" transform="translate(204.832 226.821)" fill="#a688d0"/>
        <rect id="Rectángulo_381671" data-name="Rectángulo 381671" width="13.17" height="6.055" transform="translate(218.687 226.821)" fill="#642fad"/>
        <rect id="Rectángulo_381672" data-name="Rectángulo 381672" width="13.17" height="6.055" transform="translate(232.541 226.821)" fill="#a688d0"/>
        <rect id="Rectángulo_381673" data-name="Rectángulo 381673" width="13.171" height="6.055" transform="translate(246.395 226.821)" fill="#642fad"/>
        <rect id="Rectángulo_381674" data-name="Rectángulo 381674" width="13.17" height="6.055" transform="translate(260.25 226.821)" fill="#a688d0"/>
        <rect id="Rectángulo_381675" data-name="Rectángulo 381675" width="13.171" height="6.055" transform="translate(274.103 226.821)" fill="#642fad"/>
        <rect id="Rectángulo_381676" data-name="Rectángulo 381676" width="13.17" height="6.055" transform="translate(287.958 226.821)" fill="#a688d0"/>
        <rect id="Rectángulo_381677" data-name="Rectángulo 381677" width="13.171" height="6.055" transform="translate(301.811 226.821)" fill="#642fad"/>
        <rect id="Rectángulo_381678" data-name="Rectángulo 381678" width="13.171" height="6.055" transform="translate(315.666 226.821)" fill="#a688d0"/>
        <rect id="Rectángulo_381679" data-name="Rectángulo 381679" width="22.433" height="6.055" transform="translate(57.726 105.641)" fill="#a688d0"/>
        <rect id="Rectángulo_381680" data-name="Rectángulo 381680" width="22.433" height="6.055" transform="translate(81.324 105.641)" fill="#642fad"/>
        <rect id="Rectángulo_381681" data-name="Rectángulo 381681" width="22.433" height="6.055" transform="translate(104.922 105.641)" fill="#a688d0"/>
        <rect id="Rectángulo_381682" data-name="Rectángulo 381682" width="22.433" height="6.055" transform="translate(128.519 105.641)" fill="#642fad"/>
        <rect id="Rectángulo_381683" data-name="Rectángulo 381683" width="22.433" height="6.055" transform="translate(152.117 105.641)" fill="#a688d0"/>
        <rect id="Rectángulo_381684" data-name="Rectángulo 381684" width="22.433" height="6.055" transform="translate(175.715 105.641)" fill="#642fad"/>
        <rect id="Rectángulo_381685" data-name="Rectángulo 381685" width="22.433" height="6.055" transform="translate(199.313 105.641)" fill="#a688d0"/>
        <rect id="Rectángulo_381686" data-name="Rectángulo 381686" width="22.433" height="6.055" transform="translate(222.911 105.641)" fill="#642fad"/>
        <rect id="Rectángulo_381687" data-name="Rectángulo 381687" width="22.433" height="6.055" transform="translate(246.509 105.641)" fill="#a688d0"/>
        <rect id="Rectángulo_381688" data-name="Rectángulo 381688" width="22.433" height="6.055" transform="translate(270.107 105.641)" fill="#642fad"/>
        <rect id="Rectángulo_381689" data-name="Rectángulo 381689" width="22.433" height="6.055" transform="translate(293.705 105.641)" fill="#a688d0"/>
        <rect id="Rectángulo_381690" data-name="Rectángulo 381690" width="22.433" height="6.055" transform="translate(317.303 105.641)" fill="#642fad"/>
        <path id="Trazado_828512" data-name="Trazado 828512" d="M197.418,119.938H161.34l8.286,4.143v8.458a2.243,2.243,0,0,0,2.244,2.244h25.548a2.244,2.244,0,0,0,2.244-2.244V122.182a2.244,2.244,0,0,0-2.244-2.244" fill="#40278c"/>
        <path id="Trazado_828513" data-name="Trazado 828513" d="M180.257,124.817c0-.862-.3-1.094-.78-1.094s-.78.26-.78.944v.615h-1.422v-.52c0-1.532.766-2.407,2.243-2.407s2.243.875,2.243,2.407v.246a1.865,1.865,0,0,1-1.053,1.97,1.953,1.953,0,0,1,1.053,2.011v.752c0,1.533-.766,2.408-2.243,2.408s-2.243-.875-2.243-2.408v-.793H178.7v.889c0,.684.3.944.78.944s.78-.232.78-1.08v-.753c0-.889-.3-1.217-.985-1.217h-.506v-1.368h.588c.561,0,.9-.246.9-1.012Z" fill="#b085ba"/>
        <path id="Trazado_828514" data-name="Trazado 828514" d="M182.65,124.762a2.288,2.288,0,1,1,4.569,0v4.979a2.288,2.288,0,1,1-4.569,0Zm1.505,5.075c0,.684.3.944.78.944s.78-.26.78-.944v-5.171c0-.684-.3-.943-.78-.943s-.78.259-.78.943Z" fill="#b085ba"/>
        <path id="Trazado_828515" data-name="Trazado 828515" d="M190.159,128.223l-.465.876v2.94h-1.5v-9.575h1.5v4.172l1.97-4.172h1.505l-2.093,4.268,2.093,5.307h-1.546Z" fill="#b085ba"/>
        <path id="Trazado_828516" data-name="Trazado 828516" d="M90.393,269.629v1.02c0,.786.345,1.068.9,1.068s.895-.282.895-1.068v-2.418c0-.785-.346-1.083-.895-1.083s-.9.3-.9,1.083v.331H88.759l.315-6.375h4.553v1.57h-3l-.141,2.622a1.646,1.646,0,0,1,1.508-.8c1.271,0,1.915.895,1.915,2.512v2.45c0,1.758-.879,2.763-2.576,2.763s-2.575-1.005-2.575-2.763v-.911Z" fill="#40278c"/>
        <path id="Trazado_828517" data-name="Trazado 828517" d="M94.917,264.824a2.626,2.626,0,1,1,5.245,0v5.716a2.626,2.626,0,1,1-5.245,0Zm1.727,5.825c0,.785.346,1.084.9,1.084s.895-.3.895-1.084v-5.935c0-.785-.346-1.083-.895-1.083s-.9.3-.9,1.083Z" fill="#40278c"/>
        <path id="Trazado_828518" data-name="Trazado 828518" d="M101.138,264.824a2.626,2.626,0,1,1,5.245,0v5.716a2.626,2.626,0,1,1-5.245,0Zm1.727,5.825c0,.785.346,1.084.9,1.084s.894-.3.894-1.084v-5.935c0-.785-.346-1.083-.894-1.083s-.9.3-.9,1.083Z" fill="#40278c"/>
        <path id="Trazado_828519" data-name="Trazado 828519" d="M109.761,268.8l-.534,1.005v3.376H107.5V262.187h1.727v4.789l2.262-4.789h1.726l-2.4,4.9,2.4,6.093h-1.774Z" fill="#40278c"/>
        <line id="Línea_4099" data-name="Línea 4099" x2="25.189" transform="translate(88.198 280.863)" fill="none" stroke="#40278c" stroke-miterlimit="10" stroke-width="1"/>
        <path id="Trazado_828520" data-name="Trazado 828520" d="M184.951,269.629v1.02c0,.786.345,1.068.895,1.068s.9-.282.9-1.068v-2.418c0-.785-.346-1.083-.9-1.083s-.895.3-.895,1.083v.331h-1.634l.315-6.375h4.553v1.57h-3l-.141,2.622a1.646,1.646,0,0,1,1.508-.8c1.271,0,1.915.895,1.915,2.512v2.45c0,1.758-.879,2.763-2.576,2.763s-2.575-1.005-2.575-2.763v-.911Z" fill="#40278c"/>
        <path id="Trazado_828521" data-name="Trazado 828521" d="M189.475,264.824a2.626,2.626,0,1,1,5.245,0v5.716a2.626,2.626,0,1,1-5.245,0Zm1.727,5.825c0,.785.346,1.084.9,1.084s.9-.3.9-1.084v-5.935c0-.785-.346-1.083-.9-1.083s-.9.3-.9,1.083Z" fill="#40278c"/>
        <path id="Trazado_828522" data-name="Trazado 828522" d="M195.7,264.824a2.626,2.626,0,1,1,5.245,0v5.716a2.626,2.626,0,1,1-5.245,0Zm1.728,5.825c0,.785.345,1.084.894,1.084s.9-.3.9-1.084v-5.935c0-.785-.346-1.083-.9-1.083s-.894.3-.894,1.083Z" fill="#40278c"/>
        <path id="Trazado_828523" data-name="Trazado 828523" d="M204.318,268.8l-.534,1.005v3.376h-1.727V262.187h1.727v4.789l2.262-4.789h1.726l-2.4,4.9,2.4,6.093H206Z" fill="#40278c"/>
        <line id="Línea_4100" data-name="Línea 4100" x2="25.189" transform="translate(182.755 280.863)" fill="none" stroke="#40278c" stroke-miterlimit="10" stroke-width="1"/>
        <path id="Trazado_828524" data-name="Trazado 828524" d="M287.62,269.629v1.02c0,.786.345,1.068.9,1.068s.895-.282.895-1.068v-2.418c0-.785-.346-1.083-.895-1.083s-.9.3-.9,1.083v.331h-1.634l.315-6.375h4.553v1.57h-3l-.141,2.622a1.646,1.646,0,0,1,1.508-.8c1.271,0,1.915.895,1.915,2.512v2.45c0,1.758-.879,2.763-2.576,2.763s-2.575-1.005-2.575-2.763v-.911Z" fill="#40278c"/>
        <path id="Trazado_828525" data-name="Trazado 828525" d="M292.144,264.824a2.626,2.626,0,1,1,5.245,0v5.716a2.626,2.626,0,1,1-5.245,0Zm1.727,5.825c0,.785.346,1.084.9,1.084s.894-.3.894-1.084v-5.935c0-.785-.346-1.083-.894-1.083s-.9.3-.9,1.083Z" fill="#40278c"/>
        <path id="Trazado_828526" data-name="Trazado 828526" d="M298.364,264.824a2.626,2.626,0,1,1,5.245,0v5.716a2.626,2.626,0,1,1-5.245,0Zm1.727,5.825c0,.785.346,1.084.9,1.084s.894-.3.894-1.084v-5.935c0-.785-.346-1.083-.894-1.083s-.9.3-.9,1.083Z" fill="#40278c"/>
        <path id="Trazado_828527" data-name="Trazado 828527" d="M306.987,268.8l-.534,1.005v3.376h-1.727V262.187h1.727v4.789l2.262-4.789h1.726l-2.4,4.9,2.4,6.093h-1.774Z" fill="#40278c"/>
        <line id="Línea_4101" data-name="Línea 4101" x2="25.189" transform="translate(285.424 280.863)" fill="none" stroke="#40278c" stroke-miterlimit="10" stroke-width="1"/>
        <line id="Línea_4102" data-name="Línea 4102" y2="52.503" transform="translate(149.477 252.836)" fill="none" stroke="#40278c" stroke-miterlimit="10" stroke-width="1"/>
        <line id="Línea_4103" data-name="Línea 4103" y2="52.503" transform="translate(252.325 252.836)" fill="none" stroke="#40278c" stroke-miterlimit="10" stroke-width="1"/>
        <path id="Trazado_828528" data-name="Trazado 828528" d="M92.017,247.9h3.061v.9H94.043v5.4h-.99v-5.4H92.017Z" fill="#40278c"/>
        <path id="Trazado_828529" data-name="Trazado 828529" d="M95.429,249.409a1.506,1.506,0,1,1,3.007,0v3.277a1.506,1.506,0,1,1-3.007,0Zm.99,3.341c0,.449.2.621.513.621s.513-.172.513-.621v-3.4c0-.451-.2-.621-.513-.621s-.513.17-.513.621Z" fill="#40278c"/>
        <path id="Trazado_828530" data-name="Trazado 828530" d="M99.074,247.9h1.566c.99,0,1.476.548,1.476,1.556v3.188c0,1.008-.486,1.557-1.476,1.557H99.074Zm.99.9v4.5h.558c.315,0,.5-.162.5-.612v-3.278c0-.45-.189-.612-.5-.612Z" fill="#40278c"/>
        <path id="Trazado_828531" data-name="Trazado 828531" d="M105.941,254.2h-1l-.172-1.144h-1.215l-.171,1.144h-.909l1.008-6.3h1.449Zm-2.26-2h.955l-.478-3.186Z" fill="#40278c"/>
        <path id="Trazado_828532" data-name="Trazado 828532" d="M107.327,252.111l-1.251-4.213h1.035l.756,2.871.756-2.871h.945l-1.251,4.213V254.2h-.99Z" fill="#40278c"/>
        <path id="Trazado_828533" data-name="Trazado 828533" d="M190.174,250.841l-.359,3.358h-1.36l-.7-6.3h.963l.531,4.968.477-4.968h.955l.5,5.005.513-5.005h.864l-.7,6.3h-1.315Z" fill="#40278c"/>
        <path id="Trazado_828534" data-name="Trazado 828534" d="M194.036,250.553h1.359v.9h-1.359V253.3h1.71v.9h-2.7v-6.3h2.7v.9h-1.71Z" fill="#40278c"/>
        <path id="Trazado_828535" data-name="Trazado 828535" d="M197.347,250.553h1.359v.9h-1.359V253.3h1.711v.9h-2.7v-6.3h2.7v.9h-1.711Z" fill="#40278c"/>
        <path id="Trazado_828536" data-name="Trazado 828536" d="M200.965,251.688l-.306.576V254.2h-.99v-6.3h.99v2.745l1.3-2.745h.99l-1.376,2.808,1.376,3.494h-1.017Z" fill="#40278c"/>
        <path id="Trazado_828537" data-name="Trazado 828537" d="M290.819,252.371l.675-4.474h1.378v6.3h-.937v-4.519l-.684,4.519h-.936l-.738-4.457V254.2h-.865v-6.3h1.378Z" fill="#40278c"/>
        <path id="Trazado_828538" data-name="Trazado 828538" d="M293.51,249.409a1.506,1.506,0,1,1,3.007,0v3.277a1.506,1.506,0,1,1-3.007,0Zm.99,3.341c0,.449.2.621.513.621s.513-.172.513-.621v-3.4c0-.451-.2-.621-.513-.621s-.513.17-.513.621Z" fill="#40278c"/>
        <path id="Trazado_828539" data-name="Trazado 828539" d="M298.036,249.635V254.2h-.891v-6.3h1.243l1.017,3.771V247.9h.882v6.3h-1.018Z" fill="#40278c"/>
        <path id="Trazado_828540" data-name="Trazado 828540" d="M300.71,247.9h3.061v.9h-1.036v5.4h-.99v-5.4H300.71Z" fill="#40278c"/>
        <path id="Trazado_828541" data-name="Trazado 828541" d="M305.191,254.2h-.99v-6.3h.99v2.7h1.125v-2.7h1.009v6.3h-1.009v-2.7h-1.125Z" fill="#40278c"/>
      </g>
    </g>
    <g id="Grupo_1076016" data-name="Grupo 1076016">
      <g id="Grupo_1076015" data-name="Grupo 1076015" clip-path="url(#clip-path)">
        <path id="Trazado_828542" data-name="Trazado 828542" d="M355.072,328.719s-1.334-4.334-5.223-5.89c-2.7-1.081-5.816-.8-8.616-.311-5.219.908-9.773,2.982-14.721,4.756,0,0,2.111-.778,10.779,3.445a23.333,23.333,0,0,0,10.5,2.681c2.933-.066,7.426-.9,7.286-4.681" fill="#b085ba"/>
        <path id="Trazado_828543" data-name="Trazado 828543" d="M355.542,315.986s-.025-4.534-3.3-7.148c-2.276-1.816-5.337-2.444-8.159-2.786-5.258-.639-10.218.032-15.467.3,0,0,2.246-.135,9.325,6.412a23.321,23.321,0,0,0,9.272,5.6c2.827.785,7.37,1.283,8.328-2.376" fill="#b085ba"/>
        <path id="Trazado_828544" data-name="Trazado 828544" d="M364.5,332.823s-3.537-2.837-3.549-7.027c-.008-2.911,1.4-5.7,2.887-8.123,2.769-4.517,6.376-7.985,9.85-11.93,0,0-1.5,1.676-.773,11.29a23.321,23.321,0,0,1-1.377,10.743c-1.143,2.7-3.576,6.571-7.038,5.047" fill="#b085ba"/>
        <path id="Trazado_828545" data-name="Trazado 828545" d="M377.028,339.787s-.5-4.507,2.451-7.481c2.05-2.067,5.018-3.045,7.781-3.712,5.15-1.242,10.153-1.149,15.4-1.489,0,0-2.246.125-8.52,7.447a23.318,23.318,0,0,1-8.563,6.632c-2.718,1.106-7.172,2.127-8.547-1.4" fill="#b085ba"/>
        <path id="Trazado_828546" data-name="Trazado 828546" d="M376.207,323.722s-4.492-.618-6.654-4.206c-1.5-2.494-1.725-5.61-1.7-8.453.055-5.3,1.369-10.126,2.323-15.295,0,0-.428,2.209,5.136,10.084a23.321,23.321,0,0,1,4.337,9.925c.407,2.9.307,7.474-3.446,7.945" fill="#b085ba"/>
        <path id="Trazado_828547" data-name="Trazado 828547" d="M389.136,315.655s3.231,3.181,7.393,2.7c2.893-.331,5.5-2.057,7.731-3.816,4.162-3.276,7.186-7.264,10.7-11.174,0,0-1.489,1.687-11.122,2.085a23.329,23.329,0,0,0-10.509,2.622c-2.551,1.45-6.109,4.319-4.191,7.579" fill="#b085ba"/>
        <path id="Trazado_828548" data-name="Trazado 828548" d="M385.394,312.509s4.512.453,7.456-2.527c2.045-2.072,2.993-5.05,3.631-7.82,1.189-5.162,1.045-10.164,1.331-15.413,0,0-.1,2.248-7.359,8.6a23.322,23.322,0,0,0-6.544,8.631c-1.078,2.729-2.053,7.194,1.485,8.532" fill="#b085ba"/>
        <path id="Trazado_828549" data-name="Trazado 828549" d="M369.287,356.42,361.5,337.252l-8.985-22.163" fill="none" stroke="#40278c" stroke-linecap="round" stroke-linejoin="round" stroke-width="1"/>
        <path id="Trazado_828550" data-name="Trazado 828550" d="M371.084,353.126l7.787-26.655L387.257,310" fill="none" stroke="#40278c" stroke-linecap="round" stroke-linejoin="round" stroke-width="1"/>
        <line id="Línea_4104" data-name="Línea 4104" y1="4.492" x2="7.787" transform="translate(374.079 338.151)" fill="none" stroke="#40278c" stroke-linecap="round" stroke-linejoin="round" stroke-width="1"/>
        <line id="Línea_4105" data-name="Línea 4105" x1="3.893" y1="8.686" transform="translate(374.978 317.784)" fill="none" stroke="#40278c" stroke-linecap="round" stroke-linejoin="round" stroke-width="1"/>
        <line id="Línea_4106" data-name="Línea 4106" y1="4.236" x2="9.503" transform="translate(383.743 313.592)" fill="none" stroke="#40278c" stroke-linecap="round" stroke-linejoin="round" stroke-width="1"/>
        <line id="Línea_4107" data-name="Línea 4107" y1="13.178" x2="3.294" transform="translate(362.997 327.668)" fill="none" stroke="#40278c" stroke-linecap="round" stroke-linejoin="round" stroke-width="1"/>
        <line id="Línea_4108" data-name="Línea 4108" x1="7.611" y1="4.06" transform="translate(351.017 326.77)" fill="none" stroke="#40278c" stroke-linecap="round" stroke-linejoin="round" stroke-width="1"/>
        <path id="Trazado_828551" data-name="Trazado 828551" d="M377.059,366H363.012L360,350.131h20.066Z" fill="#40278c"/>
        <path id="Trazado_828552" data-name="Trazado 828552" d="M377.059,366H363.012L360,350.131h20.066Z" fill="none" stroke="#40278c" stroke-linecap="round" stroke-linejoin="round" stroke-width="1"/>
      </g>
    </g>
    <path id="Trazado_828553" data-name="Trazado 828553" d="M223.313,286.953l-20.388,56.814,4.35,17.4,13.863-8.7,7.34-59.532Z" fill="#b085ba"/>
    <path id="Trazado_828554" data-name="Trazado 828554" d="M223.313,286.953l-20.388,56.814,4.35,17.4,13.863-8.7,7.34-59.532Z" fill="none" stroke="#40278c" stroke-linejoin="round" stroke-width="1"/>
    <g id="Grupo_1076018" data-name="Grupo 1076018">
      <g id="Grupo_1076017" data-name="Grupo 1076017" clip-path="url(#clip-path)">
        <path id="Trazado_828555" data-name="Trazado 828555" d="M204.557,339.418s5.437,5.165,7.611,10.6,1.36,9.514-.815,11.688-5.437,2.175-9.514,2.175-9.515-11.417-10.058-17.125,8.427-8.7,12.776-7.34" fill="#fff"/>
        <path id="Trazado_828556" data-name="Trazado 828556" d="M204.557,339.418s5.437,5.165,7.611,10.6,1.36,9.514-.815,11.688-5.437,2.175-9.514,2.175-9.515-11.417-10.058-17.125S200.208,338.059,204.557,339.418Z" fill="none" stroke="#40278c" stroke-linejoin="round" stroke-width="1"/>
        <path id="Trazado_828557" data-name="Trazado 828557" d="M131.433,348.66s-9.242,4.349-8.427,5.165,7.068-2.175,8.427-2.447,2.99-3.262,0-2.718" fill="#c2aedf"/>
        <path id="Trazado_828558" data-name="Trazado 828558" d="M131.433,348.66s-9.242,4.349-8.427,5.165,7.068-2.175,8.427-2.447S134.423,348.116,131.433,348.66Z" fill="none" stroke="#40278c" stroke-linejoin="round" stroke-width="1"/>
        <path id="Trazado_828559" data-name="Trazado 828559" d="M134.967,345.67s-2.99-.544-3.534.816-2.99,8.7-2.718,10.329,2.718-1.631,3.805-3.262,2.447-7.883,2.447-7.883" fill="#c2aedf"/>
        <path id="Trazado_828560" data-name="Trazado 828560" d="M134.967,345.67s-2.99-.544-3.534.816-2.99,8.7-2.718,10.329,2.718-1.631,3.805-3.262S134.967,345.67,134.967,345.67Z" fill="none" stroke="#40278c" stroke-linejoin="round" stroke-width="1"/>
        <path id="Trazado_828561" data-name="Trazado 828561" d="M140.675,345.67s-4.893-1.359-5.708,0-5.165,10.874-5.165,10.874-.544,1.087,1.9,0,8.97-10.874,8.97-10.874" fill="#c2aedf"/>
        <path id="Trazado_828562" data-name="Trazado 828562" d="M140.675,345.67s-4.893-1.359-5.708,0-5.165,10.874-5.165,10.874-.544,1.087,1.9,0S140.675,345.67,140.675,345.67Z" fill="none" stroke="#40278c" stroke-linejoin="round" stroke-width="1"/>
        <path id="Trazado_828563" data-name="Trazado 828563" d="M199.12,345.67l-30.989,2.99s-21.475-4.349-23.922-4.621-4.893,1.631-5.98,3.262-7.883,10.33-7.883,10.33l1.631.544,9.514-7.612s5.165-.272,6.8-.272-4.621,3.534-6.524,3.806-4.078.544-3.806,1.631,5.165,1.359,6.252,1.359,8.7-2.718,8.7-2.718,1.9,0,4.349.272,6.8-1.631,6.8-1.631,38.6,9.242,41.319,8.97,2.918-14.5-6.252-16.31" fill="#c2aedf"/>
        <path id="Trazado_828564" data-name="Trazado 828564" d="M199.12,345.67l-30.989,2.99s-21.475-4.349-23.922-4.621-4.893,1.631-5.98,3.262-7.883,10.33-7.883,10.33l1.631.544,9.514-7.612s5.165-.272,6.8-.272-4.621,3.534-6.524,3.806-4.078.544-3.806,1.631,5.165,1.359,6.252,1.359,8.7-2.718,8.7-2.718,1.9,0,4.349.272,6.8-1.631,6.8-1.631,38.6,9.242,41.319,8.97S208.29,347.477,199.12,345.67Z" fill="none" stroke="#40278c" stroke-linejoin="round" stroke-width="1"/>
        <path id="Trazado_828565" data-name="Trazado 828565" d="M236.986,284s15.333-13.333,28.667-12.667,16.666,8,16.666,8l-11.214,86.6H231.772Z" fill="#40278c"/>
        <path id="Trazado_828566" data-name="Trazado 828566" d="M236.986,284s15.333-13.333,28.667-12.667,16.666,8,16.666,8l-11.214,86.6H231.772Z" fill="none" stroke="#40278c" stroke-linejoin="round" stroke-width="1"/>
        <path id="Trazado_828567" data-name="Trazado 828567" d="M216.63,366h21c1.338-8.478,9.759-61.7,11.51-68.449a103.4,103.4,0,0,1,4.621-13.592l-1.9-10.873s-28.543,11.961-28.543,13.863.272,1.088.272,4.893c0,3.523-6.053,65.014-6.955,74.158" fill="#b085ba"/>
        <path id="Trazado_828568" data-name="Trazado 828568" d="M216.63,366h21c1.338-8.478,9.759-61.7,11.51-68.449a103.4,103.4,0,0,1,4.621-13.592l-1.9-10.873s-28.543,11.961-28.543,13.863.272,1.088.272,4.893C223.585,295.369,217.532,356.86,216.63,366Z" fill="none" stroke="#40278c" stroke-linejoin="round" stroke-width="1"/>
        <path id="Trazado_828569" data-name="Trazado 828569" d="M245.6,271.187l-5.165,14.407,9.786-4.621Z" fill="#fff"/>
        <path id="Trazado_828570" data-name="Trazado 828570" d="M245.6,271.187l-5.165,14.407,9.786-4.621Z" fill="none" stroke="#40278c" stroke-linejoin="round" stroke-width="1"/>
        <path id="Trazado_828571" data-name="Trazado 828571" d="M279.311,252.43l-13.864-1.087L245.6,271.187l6.524,17.125,12.233-23.106h13.32Z" fill="#fff"/>
        <path id="Trazado_828572" data-name="Trazado 828572" d="M279.311,252.43l-13.864-1.087L245.6,271.187l6.524,17.125,12.233-23.106h13.32Z" fill="none" stroke="#40278c" stroke-linejoin="round" stroke-width="1"/>
        <path id="Trazado_828573" data-name="Trazado 828573" d="M240.711,207.034s-6.252,3.806-6.8,13.592,1.631,35.066,2.99,39.144,8.155,8.155,13.32,7.068c0,0,2.175,23.921,4.621,23.378s15.223-17.67,15.767-22.563,1.359-20.659,1.359-20.659a173.2,173.2,0,0,0,1.9-22.291c0-10.058-2.447-18.213-11.145-21.2s-16.039-.815-22.019,3.534" fill="#c2aedf"/>
      </g>
    </g>
    <g id="Grupo_1076020" data-name="Grupo 1076020">
      <g id="Grupo_1076019" data-name="Grupo 1076019" clip-path="url(#clip-path-9)">
        <path id="Trazado_828574" data-name="Trazado 828574" d="M262.729,203.5c-8.7-2.99-16.038-.815-22.019,3.534a9.935,9.935,0,0,0-1.479,1.194c.433.265,3.646,2.087,10.285,2.087,7.16,0,16.441-1.061,16.441-1.061s-4.243,3.978-4.508,6.894.795,10.342,3.182,11.668.265,3.712,1.591,5.834,3.182,3.182,5.834.8a8.607,8.607,0,0,0,1.54-2.3c.167-2.475.278-5.024.278-7.447,0-10.058-2.446-18.213-11.145-21.2" fill="#a586cf"/>
      </g>
    </g>
    <g id="Grupo_1076022" data-name="Grupo 1076022">
      <g id="Grupo_1076021" data-name="Grupo 1076021" clip-path="url(#clip-path)">
        <path id="Trazado_828576" data-name="Trazado 828576" d="M240.711,207.034s-6.252,3.806-6.8,13.592,1.631,35.066,2.99,39.144,8.155,8.155,13.32,7.068c0,0,2.175,23.921,4.621,23.378s15.223-17.67,15.767-22.563,1.359-20.659,1.359-20.659a173.2,173.2,0,0,0,1.9-22.291c0-10.058-2.447-18.213-11.145-21.2S246.691,202.685,240.711,207.034Z" fill="none" stroke="#40278c" stroke-linejoin="round" stroke-width="1"/>
        <path id="Trazado_828577" data-name="Trazado 828577" d="M267.079,236.936s4.349-6.8,6.524-5.165,1.631,10.058.272,13.048-3.262,3.806-4.349,1.359" fill="#c2aedf"/>
        <path id="Trazado_828578" data-name="Trazado 828578" d="M267.079,236.936s4.349-6.8,6.524-5.165,1.631,10.058.272,13.048-3.262,3.806-4.349,1.359" fill="none" stroke="#40278c" stroke-linejoin="round" stroke-width="1"/>
        <path id="Trazado_828579" data-name="Trazado 828579" d="M242.342,234.761s-2.718,11.145-1.9,12.776,5.437,1.631,7.34.544" fill="none" stroke="#40278c" stroke-linecap="round" stroke-linejoin="round" stroke-width="1"/>
        <path id="Trazado_828580" data-name="Trazado 828580" d="M241.8,252.43s5.437,1.631,8.971-.544" fill="none" stroke="#40278c" stroke-linecap="round" stroke-linejoin="round" stroke-width="1"/>
        <path id="Trazado_828581" data-name="Trazado 828581" d="M252.4,236.392c0,1.2-.487,2.175-1.087,2.175s-1.088-.974-1.088-2.175.487-2.175,1.088-2.175,1.087.974,1.087,2.175" fill="#40278c"/>
        <path id="Trazado_828582" data-name="Trazado 828582" d="M239.352,235.033c0,1.2-.488,2.175-1.088,2.175s-1.088-.974-1.088-2.175.487-2.175,1.088-2.175,1.088.974,1.088,2.175" fill="#40278c"/>
        <path id="Trazado_828583" data-name="Trazado 828583" d="M235.546,230.684a5.551,5.551,0,0,1,5.98,0" fill="none" stroke="#40278c" stroke-linecap="round" stroke-linejoin="round" stroke-width="1"/>
        <path id="Trazado_828584" data-name="Trazado 828584" d="M248.05,231.5s5.437-2.718,8.971.815" fill="none" stroke="#40278c" stroke-linecap="round" stroke-linejoin="round" stroke-width="1"/>
        <path id="Trazado_828585" data-name="Trazado 828585" d="M300.345,366c1.167-6.825,12.145-71.011,12.4-73.07.272-2.175,1.359-5.709-.544-6.252s-34.794-20.388-34.794-20.388l-15.495,10.6s-.272,15.222-3.262,25.552c-2.805,9.69-7.763,57.654-8.366,63.556Z" fill="#b085ba"/>
        <path id="Trazado_828586" data-name="Trazado 828586" d="M300.345,366c1.167-6.825,12.145-71.011,12.4-73.07.272-2.175,1.359-5.709-.544-6.252s-34.794-20.388-34.794-20.388l-15.495,10.6s-.272,15.222-3.262,25.552c-2.805,9.69-7.763,57.654-8.366,63.556Z" fill="none" stroke="#40278c" stroke-linejoin="round" stroke-width="1"/>
        <path id="Trazado_828587" data-name="Trazado 828587" d="M261.914,276.9l4.621,14.135,14.679-24.465-1.9-14.135Z" fill="#fff"/>
        <path id="Trazado_828588" data-name="Trazado 828588" d="M261.914,276.9l4.621,14.135,14.679-24.465-1.9-14.135Z" fill="none" stroke="#40278c" stroke-linejoin="round" stroke-width="1"/>
        <path id="Trazado_828589" data-name="Trazado 828589" d="M288.826,299.186l-10.6,37.513,15.495,18.757s13.048-23.922,17.669-40.232,5.165-25.28,2.176-27.183a46.949,46.949,0,0,0-6.253-3.262" fill="#b085ba"/>
        <path id="Trazado_828590" data-name="Trazado 828590" d="M288.826,299.186l-10.6,37.513,15.495,18.757s13.048-23.922,17.669-40.232,5.165-25.28,2.176-27.183a46.949,46.949,0,0,0-6.253-3.262" fill="none" stroke="#40278c" stroke-linejoin="round" stroke-width="1"/>
        <path id="Trazado_828591" data-name="Trazado 828591" d="M278.224,332.622s-9.786,4.893-10.058,7.883,8.427,12.233,10.6,16.31,5.165,7.34,9.786,5.437,9.514-7.068,9.514-11.689-6.8-11.689-11.689-14.951-6.524-2.718-8.155-2.99" fill="#fff"/>
        <path id="Trazado_828592" data-name="Trazado 828592" d="M278.224,332.622s-9.786,4.893-10.058,7.883,8.427,12.233,10.6,16.31,5.165,7.34,9.786,5.437,9.514-7.068,9.514-11.689-6.8-11.689-11.689-14.951S279.855,332.894,278.224,332.622Z" fill="none" stroke="#40278c" stroke-linejoin="round" stroke-width="1"/>
        <path id="Trazado_828593" data-name="Trazado 828593" d="M189.606,346.757s-5.437,2.99-7.883,3.262-2.175,2.446,0,3.262,9.786-2.99,11.417-2.99,14.407,1.087,17.125,1.359,4.35-2.447-2.446-4.621-18.213-.272-18.213-.272" fill="#c2aedf"/>
        <path id="Trazado_828594" data-name="Trazado 828594" d="M189.606,346.757s-5.437,2.99-7.883,3.262-2.175,2.446,0,3.262,9.786-2.99,11.417-2.99,14.407,1.087,17.125,1.359,4.35-2.447-2.446-4.621S189.606,346.757,189.606,346.757Z" fill="none" stroke="#40278c" stroke-linejoin="round" stroke-width="1"/>
        <path id="Trazado_828595" data-name="Trazado 828595" d="M195.635,342.937s-5.038-1.168-5.685.926-6.541,10.437-6.683,11.24,1.952,1.449,4.347-1.163,8.021-11,8.021-11" fill="#c2aedf"/>
        <path id="Trazado_828596" data-name="Trazado 828596" d="M195.635,342.937s-5.038-1.168-5.685.926-6.541,10.437-6.683,11.24,1.952,1.449,4.347-1.163S195.635,342.937,195.635,342.937Z" fill="none" stroke="#40278c" stroke-linejoin="round" stroke-width="1"/>
        <path id="Trazado_828597" data-name="Trazado 828597" d="M199.392,341.864s-4.349-1.087-5.437,0-8.7,13.864-8.7,14.951,2.99.544,2.99.544l8.7-11.961,2.719-2.447Z" fill="#c2aedf"/>
        <path id="Trazado_828598" data-name="Trazado 828598" d="M199.392,341.864s-4.349-1.087-5.437,0-8.7,13.864-8.7,14.951,2.99.544,2.99.544l8.7-11.961,2.719-2.447Z" fill="none" stroke="#40278c" stroke-linejoin="round" stroke-width="1"/>
        <path id="Trazado_828599" data-name="Trazado 828599" d="M279.583,361.436a7.431,7.431,0,0,0,6.524-7.068c.544-6.524-6.524-12.776-11.417-13.048s-27.727,4.893-36.97,5.165-17.4.272-19.3-.544-17.941-4.077-19.028-4.077-12.233,15.495-12.233,15.495.816,1.9,2.99,0,9.243-8.427,9.243-8.427h7.883s-7.34,4.349-8.427,5.164-5.437,5.437-4.349,5.709,6.8-4.621,6.8-4.621l8.155-2.175s5.98,3.806,11.417,4.078a24.781,24.781,0,0,0,9.514-1.359s31.533,5.98,49.2,5.708" fill="#c2aedf"/>
        <path id="Trazado_828600" data-name="Trazado 828600" d="M279.583,361.436a7.431,7.431,0,0,0,6.524-7.068c.544-6.524-6.524-12.776-11.417-13.048s-27.727,4.893-36.97,5.165-17.4.272-19.3-.544-17.941-4.077-19.028-4.077-12.233,15.495-12.233,15.495.816,1.9,2.99,0,9.243-8.427,9.243-8.427h7.883s-7.34,4.349-8.427,5.164-5.437,5.437-4.349,5.709,6.8-4.621,6.8-4.621l8.155-2.175s5.98,3.806,11.417,4.078a24.781,24.781,0,0,0,9.514-1.359S261.914,361.708,279.583,361.436Z" fill="none" stroke="#40278c" stroke-linejoin="round" stroke-width="1"/>
      </g>
    </g>
    <g id="Grupo_1076024" data-name="Grupo 1076024">
      <g id="Grupo_1076023" data-name="Grupo 1076023" clip-path="url(#clip-path)">
        <line id="Línea_4109" data-name="Línea 4109" x1="381" transform="translate(10.807 366.004)" fill="none" stroke="#40278c" stroke-linejoin="round" stroke-width="1"/>
      </g>
    </g>
    <rect id="Rectángulo_381696" data-name="Rectángulo 381696" width="118" height="4.333" transform="translate(94.319 361.671)" fill="#fff"/>
    <g id="Grupo_1076026" data-name="Grupo 1076026">
      <g id="Grupo_1076025" data-name="Grupo 1076025" clip-path="url(#clip-path)">
        <rect id="Rectángulo_381697" data-name="Rectángulo 381697" width="118" height="4.333" transform="translate(94.319 361.671)" fill="none" stroke="#40278c" stroke-linejoin="round" stroke-width="1"/>
      </g>
    </g>
    <rect id="Rectángulo_381699" data-name="Rectángulo 381699" width="55.438" height="4.333" transform="translate(156.881 361.671)" fill="#40278c"/>
    <g id="Grupo_1076028" data-name="Grupo 1076028">
      <g id="Grupo_1076027" data-name="Grupo 1076027" clip-path="url(#clip-path)">
        <rect id="Rectángulo_381700" data-name="Rectángulo 381700" width="55.438" height="4.333" transform="translate(156.881 361.671)" fill="none" stroke="#40278c" stroke-linejoin="round" stroke-width="1"/>
      </g>
    </g>
    <path id="Trazado_828601" data-name="Trazado 828601" d="M159.631,361.671l-21.812-54.75h-68l27.25,54.75Z" fill="#40278c"/>
    <path id="Trazado_828602" data-name="Trazado 828602" d="M159.631,361.671l-21.812-54.75h-68l27.25,54.75Z" fill="none" stroke="#40278c" stroke-linejoin="round" stroke-width="1"/>
    <path id="Trazado_828603" data-name="Trazado 828603" d="M156.881,361.671l-21.812-54.75h-68l27.25,54.75Z" fill="#fff"/>
    <path id="Trazado_828604" data-name="Trazado 828604" d="M156.881,361.671l-21.812-54.75h-68l27.25,54.75Z" fill="none" stroke="#40278c" stroke-linejoin="round" stroke-width="1"/>
  </g>
</svg>
