<svg xmlns="http://www.w3.org/2000/svg" width="110" height="110" viewBox="0 0 110 110">
  <g id="_6" data-name="6" transform="translate(-580 -1523)">
    <circle id="Elipse_10574" data-name="Elipse 10574" cx="55" cy="55" r="55" transform="translate(580 1523)" fill="#fff"/>
    <g id="Data_analytics" data-name="Data analytics" transform="translate(603 1546)">
      <path id="Trazado_828614" data-name="Trazado 828614" d="M58.707,8.293l-8-8A1.118,1.118,0,0,0,50,0H18a1,1,0,0,0-1,1V6H12a1,1,0,0,0-1,1v5H6a1,1,0,0,0-1,1V63a1,1,0,0,0,1,1H46a1,1,0,0,0,1-1V58h5a1,1,0,0,0,1-1V52h5a1,1,0,0,0,1-1V9A1.089,1.089,0,0,0,58.707,8.293ZM55.586,8H51V3.414ZM45,62H7V14h4V57a1,1,0,0,0,1,1H45Zm6-6H13V8h4V51a1,1,0,0,0,1,1H51Zm1-6H19V2H49V9a1,1,0,0,0,1,1h7V50Z" fill="#8054f8"/>
      <path id="Trazado_828615" data-name="Trazado 828615" d="M54,37H52V14a1,1,0,0,0-1-1H45a1,1,0,0,0-1,1V37H42V21a1,1,0,0,0-1-1H35a1,1,0,0,0-1,1V37H32V27a1,1,0,0,0-1-1H25a1,1,0,0,0-1,1V37H22a1,1,0,0,0,0,2H54a1,1,0,0,0,0-2ZM26,37V28h4v9Zm10,0V22h4V37Zm10,0V15h4V37Z" fill="#8054f8"/>
    </g>
  </g>
</svg>
