<svg xmlns="http://www.w3.org/2000/svg" xmlns:xlink="http://www.w3.org/1999/xlink" width="1600" height="220" viewBox="0 0 1600 220">
  <defs>
    <clipPath id="clip-path">
      <path id="Recurso_1" data-name="Recurso 1" d="M0,0H1600V220H0Z" transform="translate(0 69)" fill="#d8dcfc"/>
    </clipPath>
    <clipPath id="clip-path-2">
      <path id="Rectangle_652" data-name="Rectangle 652" d="M1614.526,0H25.832C11.566,0,0,10.444,0,23.327V606.514c0,12.883,11.566,23.327,25.832,23.327H1614.526c14.267,0,25.832-10.444,25.832-23.327V23.327C1640.359,10.444,1628.793,0,1614.526,0Z" fill="#263954"/>
    </clipPath>
  </defs>
  <g id="banner_interno" transform="translate(0 -69)" clip-path="url(#clip-path)">
    <g id="Grupo_1075938" data-name="Grupo 1075938" transform="translate(0 -4.416)">
      <g id="Grupo_1075936" data-name="Grupo 1075936" transform="translate(0 58.648)">
        <g id="Grupo_1075935" data-name="Grupo 1075935">
          <g id="Group_1153" data-name="Group 1153">
            <path id="Recurso_1-2" data-name="Recurso 1" d="M0,0H1600V334.847H0Z" fill="#dadefc"/>
          </g>
        </g>
      </g>
      <g id="Grupo_1075937" data-name="Grupo 1075937" transform="translate(0 -310.505)" clip-path="url(#clip-path-2)">
        <rect id="Rectángulo_381361" data-name="Rectángulo 381361" width="1053.423" height="2517.065" rx="424" transform="translate(1780.235 -389.23) rotate(94)" fill="#283859"/>
      </g>
    </g>
    <g id="Grupo_1075939" data-name="Grupo 1075939" transform="translate(10924 12734)">
      <path id="Sustracción_5" data-name="Sustracción 5" d="M154.88,0H0V.486a76.826,76.826,0,0,0,1.575,15.49,75.991,75.991,0,0,0,4.511,14.43,76.6,76.6,0,0,0,7.14,13.058,77.449,77.449,0,0,0,9.458,11.375,77.877,77.877,0,0,0,11.462,9.385A77.4,77.4,0,0,0,47.3,71.31a77.418,77.418,0,0,0,14.54,4.479,78.376,78.376,0,0,0,15.6,1.562,78.329,78.329,0,0,0,15.607-1.562,77.126,77.126,0,0,0,14.538-4.479,77.507,77.507,0,0,0,13.153-7.086,77.906,77.906,0,0,0,11.46-9.385,77.629,77.629,0,0,0,9.458-11.375,76.387,76.387,0,0,0,7.137-13.058,76.012,76.012,0,0,0,4.518-14.43A76.876,76.876,0,0,0,154.885.486c0-.159,0-.317,0-.473V0Z" transform="translate(-9316 -12702.787) rotate(90)" fill="#d8dcfc"/>
      <path id="Trazado_828454" data-name="Trazado 828454" d="M351.311,449.211a4.789,4.789,0,0,1-1.407,3.4l-4.862,4.86,4.862,4.86a4.8,4.8,0,0,1-6.794,6.794l-4.86-4.86-4.86,4.86a4.8,4.8,0,0,1-6.793-6.794l4.86-4.86-4.86-4.86a4.8,4.8,0,0,1,0-6.793h0a4.8,4.8,0,0,1,6.793,0l4.86,4.86,4.86-4.86a4.805,4.805,0,0,1,6.794,0h0a4.788,4.788,0,0,1,1.407,3.4Z" transform="translate(-9747.308 -13024.423)" fill="#d8dcfc"/>
      <path id="Trazado_828455" data-name="Trazado 828455" d="M18.885,21.411A2.526,2.526,0,0,0,20.671,17.1l-4.307-4.306-1.222-1.222,1.222-1.223,4.307-4.305A2.526,2.526,0,1,0,17.1,2.47L12.794,6.775,11.57,8,10.347,6.775,6.042,2.47A2.526,2.526,0,0,0,2.469,6.043l4.305,4.305L8,11.571,6.774,12.793,2.469,17.1a2.526,2.526,0,0,0,3.572,3.572l4.305-4.306,1.223-1.222,1.223,1.222L17.1,20.672a2.513,2.513,0,0,0,1.786.739m0,1.73a4.24,4.24,0,0,1-3.01-1.247L11.57,17.589,7.264,21.894a4.255,4.255,0,0,1-6.018,0h0a4.257,4.257,0,0,1,0-6.018l4.307-4.305L1.246,7.265A4.255,4.255,0,1,1,7.264,1.247L11.57,5.553l4.305-4.307a4.256,4.256,0,0,1,6.019,0h0a4.256,4.256,0,0,1,0,6.018l-4.307,4.306,4.307,4.305a4.256,4.256,0,0,1,0,6.018h0a4.241,4.241,0,0,1-3.01,1.247Z" transform="matrix(0.695, -0.719, 0.719, 0.695, -9464.529, -12629.752)" fill="#283859"/>
      <path id="Rectángulo_381363" data-name="Rectángulo 381363" d="M41,0H60a41,41,0,0,1,41,41V255a0,0,0,0,1,0,0H0a0,0,0,0,1,0,0V41A41,41,0,0,1,41,0Z" transform="translate(-9548.025 -12713.685)" fill="#8054f8"/>
      <path id="Rectángulo_381364" data-name="Rectángulo 381364" d="M0,0H103a0,0,0,0,1,0,0V88a41,41,0,0,1-41,41H41A41,41,0,0,1,0,88V0A0,0,0,0,1,0,0Z" transform="translate(-9682.025 -12702.685)" fill="#42f7c3"/>
      <g id="Rectángulo_381365" data-name="Rectángulo 381365" transform="translate(-9682.025 -12547.685)" fill="none" stroke="#d8dcfc" stroke-width="3">
        <rect width="103" height="165" rx="51" stroke="none"/>
        <rect x="1.5" y="1.5" width="100" height="162" rx="49.5" fill="none"/>
      </g>
      <g id="Elipse_10539" data-name="Elipse 10539" transform="translate(-9412.025 -12530.685)" fill="none" stroke="#8054f8" stroke-width="3">
        <ellipse cx="48" cy="48" rx="48" ry="48" stroke="none"/>
        <ellipse cx="48" cy="48" rx="46.5" ry="46.5" fill="none"/>
      </g>
      <ellipse id="Elipse_10540" data-name="Elipse 10540" cx="46.906" cy="46.906" rx="46.906" ry="46.906" transform="translate(-9800.745 -12605.998)" fill="#8054f8"/>
      <ellipse id="Elipse_10541" data-name="Elipse 10541" cx="62" cy="63" rx="62" ry="63" transform="translate(-9560.025 -12497.685)" fill="#d8dcfc"/>
      <path id="Trazado_828456" data-name="Trazado 828456" d="M29.327,33.25a3.923,3.923,0,0,0,2.774-6.7l-6.688-6.688-1.9-1.9,1.9-1.9L32.1,9.383a3.923,3.923,0,1,0-5.548-5.548l-6.686,6.686-1.9,1.9-1.9-1.9L9.382,3.836A3.923,3.923,0,0,0,3.835,9.383l6.685,6.686,1.9,1.9-1.9,1.9L3.835,26.554A3.923,3.923,0,0,0,9.382,32.1l6.686-6.688,1.9-1.9,1.9,1.9L26.553,32.1a3.9,3.9,0,0,0,2.774,1.148m0,2.686A6.585,6.585,0,0,1,24.654,34l-6.686-6.686L11.28,34a6.608,6.608,0,0,1-9.346,0h0a6.61,6.61,0,0,1,0-9.345l6.688-6.686L1.935,11.281A6.608,6.608,0,1,1,11.28,1.936l6.688,6.688,6.686-6.688a6.61,6.61,0,0,1,9.347,0h0a6.61,6.61,0,0,1,0,9.345l-6.688,6.688L34,24.654A6.61,6.61,0,0,1,34,34h0a6.585,6.585,0,0,1-4.674,1.936Z" transform="matrix(0.695, -0.719, 0.719, 0.695, -9392.748, -12728.721)" fill="#fff"/>
      <g id="Sustracción_6" data-name="Sustracción 6" transform="translate(-9801.054 -12613.677) rotate(-90)" fill="none">
        <path d="M146.5,0H0V.462A73.99,73.99,0,0,0,1.488,15.25,73.024,73.024,0,0,0,5.755,29.022a73.346,73.346,0,0,0,6.753,12.463,73.791,73.791,0,0,0,8.946,10.861A73.56,73.56,0,0,0,32.3,61.305,73.056,73.056,0,0,0,44.74,68.071a72.778,72.778,0,0,0,13.752,4.275,73.468,73.468,0,0,0,14.762,1.491,73.458,73.458,0,0,0,14.762-1.491,72.558,72.558,0,0,0,13.749-4.275,73.221,73.221,0,0,0,12.444-6.765,73.979,73.979,0,0,0,10.843-8.96,73.848,73.848,0,0,0,8.942-10.861,73.227,73.227,0,0,0,6.753-12.463,72.739,72.739,0,0,0,4.27-13.772A73.972,73.972,0,0,0,146.507.462c0-.153,0-.3,0-.45V0Z" stroke="none"/>
        <path d="M 3.04510498046875 3 C 3.184722900390625 6.928115844726562 3.647964477539062 10.835693359375 4.42755126953125 14.64973068237305 C 5.34942626953125 19.16658401489258 6.72589111328125 23.60929489135742 8.51885986328125 27.85464859008789 C 10.28157043457031 32.02925109863281 12.46046447753906 36.05052185058594 14.99560546875 39.80764770507812 C 17.50773620605469 43.53354644775391 20.39506530761719 47.03874969482422 23.57823181152344 50.22671127319336 C 26.75462341308594 53.41046142578125 30.2535400390625 56.30177307128906 33.97975158691406 58.82164764404297 C 37.72364807128906 61.35783386230469 41.73760986328125 63.54037857055664 45.90985870361328 65.30850219726562 C 50.14691925048828 67.10363006591797 54.58258819580078 68.48249816894531 59.09558868408203 69.40723419189453 C 63.70937347412109 70.35585784912109 68.47270965576172 70.83683776855469 73.25327301025391 70.83683776855469 C 78.03387451171875 70.83683776855469 82.79721069335938 70.35585784912109 87.41277313232422 69.40687561035156 C 91.93589782714844 68.47979736328125 96.37014770507812 67.10116577148438 100.5934448242188 65.30875396728516 C 104.7638778686523 63.54083633422852 108.7786483764648 61.35806274414062 112.526252746582 58.82110595703125 C 116.2474365234375 56.302001953125 119.7471923828125 53.41000366210938 122.9273986816406 50.22629547119141 C 126.1044616699219 47.04316711425781 128.9905700683594 43.53783416748047 131.5064544677734 39.80637741088867 C 134.0418701171875 36.05004501342773 136.2206268310547 32.02908706665039 137.9833374023438 27.85233688354492 C 139.7754211425781 23.61810684204102 141.1524963378906 19.17610549926758 142.0765686035156 14.64856338500977 C 142.8572387695312 10.8311767578125 143.3212890625 6.923904418945312 143.4612579345703 3 L 3.04510498046875 3 M 0 0 L 146.5025482177734 0 L 146.5025482177734 0.01204681396484375 C 146.5025482177734 0.162109375 146.5065460205078 0.3094635009765625 146.5065460205078 0.462188720703125 C 146.5065460205078 5.439125061035156 146.0042266845703 10.41606521606445 145.0157318115234 15.24964904785156 C 144.0540924072266 19.96133422851562 142.6183319091797 24.59798049926758 140.7460784912109 29.02162551879883 C 138.9113922119141 33.36891937255859 136.6389007568359 37.56481552124023 133.9930267333984 41.4847526550293 C 131.3726654052734 45.37117004394531 128.3655090332031 49.02450180053711 125.0507507324219 52.34558486938477 C 121.7306518554688 55.66933441162109 118.0828399658203 58.68229293823242 114.2080230712891 61.30539703369141 C 110.2915802001953 63.95664978027344 106.1065216064453 66.23008728027344 101.7643356323242 68.07081604003906 C 97.34825134277344 69.94504547119141 92.7213134765625 71.38118743896484 88.01512145996094 72.34577178955078 C 83.1934814453125 73.33712768554688 78.22537994384766 73.83683776855469 73.25327301025391 73.83683776855469 C 68.28252410888672 73.83683776855469 63.31310272216797 73.33712768554688 58.49141693115234 72.34577178955078 C 53.78389739990234 71.38118743896484 49.15695953369141 69.94235992431641 44.73954010009766 68.07081604003906 C 40.39600372314453 66.23008728027344 36.21096038818359 63.95664978027344 32.29721069335938 61.30539703369141 C 28.41835784912109 58.68229293823242 24.77054595947266 55.66933441162109 21.45446014404297 52.34558486938477 C 18.13838195800781 49.02450180053711 15.12852478027344 45.37117004394531 12.50816345214844 41.4847526550293 C 9.864974975585938 37.56750106811523 7.592453002929688 33.37294006347656 5.755126953125 29.02162551879883 C 3.886871337890625 24.59798049926758 2.44976806640625 19.96133422851562 1.488143920898438 15.24964904785156 C 0.4996337890625 10.41337585449219 0 5.439125061035156 0 0.462188720703125 C 0 0.385833740234375 0 0.3094635009765625 0 0.2290878295898438 C 0 0.1527328491210938 0 0.07635498046875 0 0 Z" stroke="none" fill="#d8dcfc"/>
      </g>
      <path id="Trazado_828457" data-name="Trazado 828457" d="M347.364,448.485a4.065,4.065,0,0,1-1.194,2.883l-4.127,4.126,4.127,4.126a4.078,4.078,0,0,1-5.768,5.768l-4.126-4.126-4.126,4.126a4.078,4.078,0,0,1-5.767-5.768l4.126-4.126-4.126-4.126a4.078,4.078,0,0,1,0-5.766h0a4.078,4.078,0,0,1,5.767,0l4.126,4.126L340.4,445.6a4.079,4.079,0,0,1,5.768,0h0a4.064,4.064,0,0,1,1.194,2.883Z" transform="translate(-9967.616 -13184.455)" fill="#fff"/>
      <path id="Trazado_828458" data-name="Trazado 828458" d="M351.311,449.211a4.789,4.789,0,0,1-1.407,3.4l-4.862,4.86,4.862,4.86a4.8,4.8,0,0,1-6.794,6.794l-4.86-4.86-4.86,4.86a4.8,4.8,0,0,1-6.793-6.794l4.86-4.86-4.86-4.86a4.8,4.8,0,0,1,0-6.793h0a4.8,4.8,0,0,1,6.793,0l4.86,4.86,4.86-4.86a4.805,4.805,0,0,1,6.794,0h0a4.788,4.788,0,0,1,1.407,3.4Z" transform="translate(-10231.287 -13059.782)" fill="#98d1ca"/>
      <g id="Rectángulo_381367" data-name="Rectángulo 381367" transform="translate(-10210.641 -12758.786)" fill="none" stroke="#d8dcfc" stroke-width="3">
        <path d="M41,0H61.813a41,41,0,0,1,41,41V164.106a0,0,0,0,1,0,0H0a0,0,0,0,1,0,0V41A41,41,0,0,1,41,0Z" stroke="none"/>
        <path d="M41,1.5H61.813a39.5,39.5,0,0,1,39.5,39.5V162.606a0,0,0,0,1,0,0H1.5a0,0,0,0,1,0,0V41A39.5,39.5,0,0,1,41,1.5Z" fill="none"/>
      </g>
      <path id="Rectángulo_381368" data-name="Rectángulo 381368" d="M0,0H102.685a0,0,0,0,1,0,0V81.144a51,51,0,0,1-51,51H51a51,51,0,0,1-51-51V0A0,0,0,0,1,0,0Z" transform="translate(-10325.881 -12709.357)" fill="#98d1ca"/>
      <rect id="Rectángulo_381369" data-name="Rectángulo 381369" width="102.813" height="136.425" rx="51" transform="translate(-9947.676 -12559.092)" fill="#98d1ca"/>
      <rect id="Rectángulo_381370" data-name="Rectángulo 381370" width="102.813" height="110.722" rx="51" transform="translate(-10078.17 -12559.092)" fill="#42f7c3"/>
      <g id="Elipse_10543" data-name="Elipse 10543" transform="translate(-9941.744 -12742.969)" fill="none" stroke="#8054f8" stroke-width="3">
        <ellipse cx="48.441" cy="48.441" rx="48.441" ry="48.441" stroke="none"/>
        <ellipse cx="48.441" cy="48.441" rx="46.941" ry="46.941" fill="none"/>
      </g>
      <ellipse id="Elipse_10544" data-name="Elipse 10544" cx="63.27" cy="63.27" rx="63.27" ry="63.27" transform="translate(-10090.032 -12709.357)" fill="#d8dcfc"/>
      <ellipse id="Elipse_10545" data-name="Elipse 10545" cx="58.327" cy="59.315" rx="58.327" ry="59.315" transform="translate(-10218.549 -12634.225)" fill="#8054f8"/>
      <path id="Sustracción_7" data-name="Sustracción 7" d="M147.672,74.665H0V74.2A75.086,75.086,0,0,1,1.5,59.246,74.128,74.128,0,0,1,45.1,5.831a73.615,73.615,0,0,1,57.479,0,73.846,73.846,0,0,1,12.543,6.837A74.227,74.227,0,0,1,147.673,74.2c0,.152,0,.3,0,.45v.013Z" transform="translate(-10335.608 -12550.32)" fill="#8054f8"/>
      <path id="Trazado_828459" data-name="Trazado 828459" d="M29.327,33.25a3.923,3.923,0,0,0,2.774-6.7l-6.688-6.688-1.9-1.9,1.9-1.9L32.1,9.383a3.923,3.923,0,1,0-5.548-5.548l-6.686,6.686-1.9,1.9-1.9-1.9L9.382,3.836A3.923,3.923,0,0,0,3.835,9.383l6.685,6.686,1.9,1.9-1.9,1.9L3.835,26.554A3.923,3.923,0,0,0,9.382,32.1l6.686-6.688,1.9-1.9,1.9,1.9L26.553,32.1a3.9,3.9,0,0,0,2.774,1.148m0,2.686A6.585,6.585,0,0,1,24.654,34l-6.686-6.686L11.28,34a6.608,6.608,0,0,1-9.346,0h0a6.61,6.61,0,0,1,0-9.345l6.688-6.686L1.935,11.281A6.608,6.608,0,1,1,11.28,1.936l6.688,6.688,6.686-6.688a6.61,6.61,0,0,1,9.347,0h0a6.61,6.61,0,0,1,0,9.345l-6.688,6.688L34,24.654A6.61,6.61,0,0,1,34,34h0a6.585,6.585,0,0,1-4.674,1.936Z" transform="matrix(0.695, -0.719, 0.719, 0.695, -10269.362, -12533.242)" fill="#fff"/>
    </g>
  </g>
</svg>
