<svg xmlns="http://www.w3.org/2000/svg" width="80" height="80" viewBox="0 0 80 80">
  <g id="_10" data-name="10" transform="translate(-295 -3452)">
    <rect id="Rectángulo_381723" data-name="Rectángulo 381723" width="80" height="80" rx="10" transform="translate(295 3452)" fill="#ece5fe"/>
    <g id="operating-system" transform="translate(302.531 3460)">
      <path id="Trazado_828635" data-name="Trazado 828635" d="M58.823,20.63c.253.593.49,1.2.7,1.809l1.887-.663c-.228-.65-.481-1.3-.753-1.933Z" fill="#8054f8"/>
      <path id="Trazado_828636" data-name="Trazado 828636" d="M13.542,7.026c-.556.408-1.1.839-1.632,1.282L13.2,9.839q.743-.624,1.529-1.2Z" fill="#8054f8"/>
      <path id="Trazado_828637" data-name="Trazado 828637" d="M43.149,3.045l-.712,1.869c.6.229,1.2.482,1.792.753l.836-1.816c-.628-.29-1.273-.561-1.916-.806Z" fill="#8054f8"/>
      <path id="Trazado_828638" data-name="Trazado 828638" d="M17.043,4.8c-.6.33-1.206.685-1.786,1.053l1.072,1.688q.819-.519,1.673-.986Z" fill="#8054f8"/>
      <path id="Trazado_828639" data-name="Trazado 828639" d="M39.179,1.828l-.457,1.947q.949.222,1.877.507l.584-1.912c-.664-.2-1.339-.386-2-.542Z" fill="#8054f8"/>
      <path id="Trazado_828640" data-name="Trazado 828640" d="M28.865,1.155c-.689.069-1.381.161-2.056.274l.33,1.972q.953-.159,1.925-.256Z" fill="#8054f8"/>
      <path id="Trazado_828641" data-name="Trazado 828641" d="M46.923,4.782l-.957,1.757q.855.466,1.677.986l1.07-1.69c-.585-.37-1.188-.724-1.79-1.053Z" fill="#8054f8"/>
      <path id="Trazado_828642" data-name="Trazado 828642" d="M35.084,1.15l-.193,1.99c.642.063,1.291.148,1.925.253l.327-1.973c-.678-.112-1.372-.2-2.059-.27Z" fill="#8054f8"/>
      <path id="Trazado_828643" data-name="Trazado 828643" d="M24.775,1.839c-.667.157-1.341.341-2,.545L23.36,4.3c.62-.191,1.25-.362,1.874-.509Z" fill="#8054f8"/>
      <path id="Trazado_828644" data-name="Trazado 828644" d="M33.013,1.016c-.691-.022-1.386-.022-2.075,0l.066,2c.643-.022,1.3-.022,1.946,0Z" fill="#8054f8"/>
      <path id="Trazado_828645" data-name="Trazado 828645" d="M20.811,3.061c-.641.245-1.285.517-1.913.806l.838,1.817c.586-.271,1.184-.523,1.789-.756Z" fill="#8054f8"/>
      <path id="Trazado_828646" data-name="Trazado 828646" d="M2.57,21.819l1.889.659c.214-.614.45-1.223.7-1.811l-1.84-.787c-.266.63-.519,1.283-.749,1.939Z" fill="#8054f8"/>
      <path id="Trazado_828647" data-name="Trazado 828647" d="M8.918,11.184,10.4,12.531q.656-.719,1.356-1.392L10.365,9.7c-.5.474-.983.975-1.447,1.484Z" fill="#8054f8"/>
      <path id="Trazado_828648" data-name="Trazado 828648" d="M60.108,24.292c.173.626.327,1.262.454,1.887l1.959-.4c-.136-.67-.3-1.35-.485-2.02Z" fill="#8054f8"/>
      <path id="Trazado_828649" data-name="Trazado 828649" d="M1.469,25.825l1.961.4c.127-.626.278-1.262.45-1.888L1.952,23.8c-.184.674-.347,1.354-.483,2.025Z" fill="#8054f8"/>
      <path id="Trazado_828650" data-name="Trazado 828650" d="M52.226,11.117q.7.674,1.357,1.392l1.477-1.35c-.469-.512-.956-1.012-1.45-1.485Z" fill="#8054f8"/>
      <path id="Trazado_828651" data-name="Trazado 828651" d="M52.062,8.287c-.529-.445-1.079-.875-1.633-1.282L49.247,8.62q.786.573,1.53,1.2Z" fill="#8054f8"/>
      <path id="Trazado_828652" data-name="Trazado 828652" d="M57.059,17.176c.333.557.649,1.128.94,1.7l1.781-.909c-.31-.61-.649-1.22-1.007-1.817Z" fill="#8054f8"/>
      <path id="Trazado_828653" data-name="Trazado 828653" d="M54.846,13.986c.4.5.792,1.028,1.16,1.558L57.648,14.4c-.392-.566-.81-1.126-1.24-1.665Z" fill="#8054f8"/>
      <path id="Trazado_828654" data-name="Trazado 828654" d="M4.2,18l1.783.907c.294-.578.61-1.15.94-1.7L5.207,16.178C4.854,16.767,4.517,17.379,4.2,18Z" fill="#8054f8"/>
      <path id="Trazado_828655" data-name="Trazado 828655" d="M6.332,14.433,7.977,15.57c.364-.526.753-1.05,1.159-1.56L7.571,12.765c-.433.544-.849,1.105-1.239,1.668Z" fill="#8054f8"/>
      <path id="Trazado_828656" data-name="Trazado 828656" d="M62.531,38.175l-1.961-.4c-.126.624-.278,1.26-.45,1.889l1.928.529c.185-.669.352-1.349.483-2.018Z" fill="#8054f8"/>
      <path id="Trazado_828657" data-name="Trazado 828657" d="M46.957,59.2c.6-.329,1.2-.683,1.786-1.054l-1.072-1.688q-.819.521-1.673.986Z" fill="#8054f8"/>
      <path id="Trazado_828658" data-name="Trazado 828658" d="M43.188,60.939c.639-.244,1.284-.515,1.915-.806l-.84-1.817c-.589.273-1.191.527-1.787.754Z" fill="#8054f8"/>
      <path id="Trazado_828659" data-name="Trazado 828659" d="M39.226,62.161c.673-.159,1.347-.343,2-.544l-.588-1.912c-.618.191-1.243.36-1.876.511Z" fill="#8054f8"/>
      <path id="Trazado_828660" data-name="Trazado 828660" d="M50.458,56.973c.557-.409,1.106-.84,1.632-1.282L50.8,54.16q-.744.626-1.529,1.2Z" fill="#8054f8"/>
      <path id="Trazado_828661" data-name="Trazado 828661" d="M35.134,62.845c.679-.068,1.372-.159,2.056-.274L36.862,60.6c-.635.1-1.278.191-1.925.255Z" fill="#8054f8"/>
      <path id="Trazado_828662" data-name="Trazado 828662" d="M24.82,62.173l.459-1.947Q24.33,60,23.4,59.719l-.584,1.912C23.475,61.832,24.148,62.015,24.82,62.173Z" fill="#8054f8"/>
      <path id="Trazado_828663" data-name="Trazado 828663" d="M20.851,60.956l.712-1.869c-.607-.232-1.206-.483-1.792-.753l-.836,1.816C19.56,60.438,20.2,60.709,20.851,60.956Z" fill="#8054f8"/>
      <path id="Trazado_828664" data-name="Trazado 828664" d="M31.052,60.985l-.067,2c.364.013.724.012,1.09.017.33,0,.66-.006.988-.018l-.068-2c-.306.01-.612.016-.923.016-.337,0-.68,0-1.02-.015Z" fill="#8054f8"/>
      <path id="Trazado_828665" data-name="Trazado 828665" d="M28.916,62.85l.193-1.991c-.648-.063-1.291-.148-1.925-.253l-.327,1.973c.686.113,1.378.2,2.059.271Z" fill="#8054f8"/>
      <path id="Trazado_828666" data-name="Trazado 828666" d="M11.774,52.883q-.7-.672-1.357-1.392L8.94,52.841c.465.509.953,1.009,1.45,1.485Z" fill="#8054f8"/>
      <path id="Trazado_828667" data-name="Trazado 828667" d="M9.154,50.014c-.406-.509-.8-1.033-1.159-1.558L6.351,49.6c.389.562.806,1.123,1.241,1.667Z" fill="#8054f8"/>
      <path id="Trazado_828668" data-name="Trazado 828668" d="M61.43,42.183l-1.889-.661c-.213.612-.449,1.221-.7,1.813l1.84.785C60.949,43.487,61.2,42.835,61.43,42.183Z" fill="#8054f8"/>
      <path id="Trazado_828669" data-name="Trazado 828669" d="M6.941,46.823c-.333-.555-.649-1.127-.94-1.7l-1.781.908c.31.611.649,1.222,1.007,1.818Z" fill="#8054f8"/>
      <path id="Trazado_828670" data-name="Trazado 828670" d="M5.177,43.37q-.381-.889-.7-1.808l-1.887.664c.228.65.482,1.3.753,1.931Z" fill="#8054f8"/>
      <path id="Trazado_828671" data-name="Trazado 828671" d="M11.938,55.714q.8.664,1.633,1.28l1.182-1.613q-.786-.576-1.531-1.2Z" fill="#8054f8"/>
      <path id="Trazado_828672" data-name="Trazado 828672" d="M59.8,46l-1.784-.9c-.294.577-.61,1.149-.94,1.7l1.717,1.027C59.146,47.233,59.483,46.621,59.8,46Z" fill="#8054f8"/>
      <path id="Trazado_828673" data-name="Trazado 828673" d="M1.479,38.221c.137.67.3,1.349.486,2.02l1.928-.533c-.174-.627-.327-1.262-.455-1.888Z" fill="#8054f8"/>
      <path id="Trazado_828674" data-name="Trazado 828674" d="M57.668,49.568,56.023,48.43c-.365.527-.754,1.051-1.159,1.559l1.565,1.246c.431-.542.848-1.1,1.239-1.667Z" fill="#8054f8"/>
      <path id="Trazado_828675" data-name="Trazado 828675" d="M17.077,59.217l.957-1.756q-.855-.466-1.677-.986l-1.07,1.689C15.866,58.531,16.469,58.886,17.077,59.217Z" fill="#8054f8"/>
      <path id="Trazado_828676" data-name="Trazado 828676" d="M52.247,52.863l1.389,1.44c.5-.481.984-.981,1.446-1.487L53.6,51.469Q52.949,52.188,52.247,52.863Z" fill="#8054f8"/>
      <path id="Trazado_828677" data-name="Trazado 828677" d="M2.293,31.293A1,1,0,0,0,3,33H5.019a27,27,0,0,0,53.727,2.668l2.961-2.961A1,1,0,0,0,61,31H58.981A27,27,0,0,0,5.254,28.332ZM32,57A25.028,25.028,0,0,1,7,32a1,1,0,0,0-1-1H5.414L9,27.414,12.586,31H12a1,1,0,0,0-1,1,21,21,0,0,0,41.436,4.85l1.857,1.857a1,1,0,0,0,1.414,0l.49-.489A25.008,25.008,0,0,1,32,57ZM49,31a1,1,0,0,0-.707,1.707l2.432,2.432A18.992,18.992,0,0,1,13.026,33H15a1,1,0,0,0,.707-1.707l-2.432-2.432A18.992,18.992,0,0,1,50.974,31ZM32,7A25.028,25.028,0,0,1,57,32a1,1,0,0,0,1,1h.586L55,36.586,51.414,33H52a1,1,0,0,0,1-1,21,21,0,0,0-41.436-4.85L9.707,25.293a1,1,0,0,0-1.414,0l-.489.489A25.007,25.007,0,0,1,32,7Z" fill="#8054f8"/>
      <path id="Trazado_828678" data-name="Trazado 828678" d="M43.566,26.09l1.162-1.161a1,1,0,0,0,0-1.414l-4.243-4.243a1,1,0,0,0-1.414,0L37.91,20.433a12.8,12.8,0,0,0-1.91-.79V18a1,1,0,0,0-1-1H29a1,1,0,0,0-1,1v1.643a12.8,12.8,0,0,0-1.91.79l-1.161-1.161a1,1,0,0,0-1.414,0l-4.243,4.243a1,1,0,0,0,0,1.414l1.162,1.161A12.7,12.7,0,0,0,19.643,28H18a1,1,0,0,0-1,1v6a1,1,0,0,0,1,1h1.643a12.9,12.9,0,0,0,.79,1.91l-1.161,1.161a1,1,0,0,0,0,1.414l4.243,4.243a1,1,0,0,0,1.414,0l1.161-1.161a12.9,12.9,0,0,0,1.91.79V46a1,1,0,0,0,1,1h6a1,1,0,0,0,1-1V44.357a12.9,12.9,0,0,0,1.91-.79l1.161,1.161a1,1,0,0,0,1.414,0l4.243-4.243a1,1,0,0,0,0-1.414L43.567,37.91a12.9,12.9,0,0,0,.79-1.91H46a1,1,0,0,0,1-1V29a1,1,0,0,0-1-1H44.357a12.7,12.7,0,0,0-.791-1.91ZM45,34H43.606a1,1,0,0,0-.968.75,10.918,10.918,0,0,1-1.17,2.827,1,1,0,0,0,.154,1.216l.984.985-2.828,2.828-.985-.984a1,1,0,0,0-1.216-.154,10.918,10.918,0,0,1-2.827,1.17,1,1,0,0,0-.75.968V45H30V43.606a1,1,0,0,0-.75-.968,10.918,10.918,0,0,1-2.827-1.17,1,1,0,0,0-1.216.154l-.985.984-2.828-2.828.984-.985a1,1,0,0,0,.154-1.216,10.918,10.918,0,0,1-1.17-2.827,1,1,0,0,0-.968-.75H19V30h1.394a1,1,0,0,0,.968-.75,10.939,10.939,0,0,1,1.17-2.828,1,1,0,0,0-.154-1.215l-.984-.985,2.828-2.829.985.985a1,1,0,0,0,1.216.154,10.949,10.949,0,0,1,2.827-1.171,1,1,0,0,0,.75-.968V19h4v1.393a1,1,0,0,0,.75.968,10.949,10.949,0,0,1,2.827,1.171,1,1,0,0,0,1.216-.154l.985-.985,2.828,2.829-.984.985a1,1,0,0,0-.154,1.215,10.939,10.939,0,0,1,1.17,2.828,1,1,0,0,0,.968.75H45Z" fill="#8054f8"/>
      <path id="Trazado_828679" data-name="Trazado 828679" d="M32,24a8,8,0,1,0,8,8,8,8,0,0,0-8-8Zm0,14a6,6,0,1,1,6-6,6,6,0,0,1-6,6Z" fill="#8054f8"/>
    </g>
  </g>
</svg>
