<svg xmlns="http://www.w3.org/2000/svg" width="100" height="100" viewBox="0 0 100 100">
  <g id="Grupo_1076076" data-name="Grupo 1076076" transform="translate(-285 -6012)">
    <g id="Grupo_1076075" data-name="Grupo 1076075">
      <path id="Rectángulo_381826" data-name="Rectángulo 381826" d="M10,0h90a0,0,0,0,1,0,0V100a0,0,0,0,1,0,0H10A10,10,0,0,1,0,90V10A10,10,0,0,1,10,0Z" transform="translate(285 6012)" fill="#ece5fe"/>
    </g>
    <g id="exploration" transform="translate(298 6025)">
      <path id="Trazado_828716" data-name="Trazado 828716" d="M60.877,359.866H55.97V343.49l4.907.047Z" transform="translate(-40.968 -297.205)" fill="#fedf30" fill-rule="evenodd"/>
      <path id="Trazado_828717" data-name="Trazado 828717" d="M131.68,397.76h4.907v10.471H131.68Z" transform="translate(-108.441 -345.57)" fill="#ff5a5a" fill-rule="evenodd"/>
      <path id="Trazado_828718" data-name="Trazado 828718" d="M212.307,370.026H207.4V354.89l.767.907a12.65,12.65,0,0,0,3.9,3.1l.237.121Z" transform="translate(-175.922 -307.365)" fill="#05e39c" fill-rule="evenodd"/>
      <path id="Trazado_828719" data-name="Trazado 828719" d="M288.007,411.564H283.1v-9.935l.491.063a12.592,12.592,0,0,0,3.9-.1l.514-.094v10.064Z" transform="translate(-243.386 -348.903)" fill="#87d4ed" fill-rule="evenodd"/>
      <path id="Trazado_828720" data-name="Trazado 828720" d="M389.986,373.6l6.713,5.713a2.729,2.729,0,0,1,.94,2,3.261,3.261,0,0,1-3.39,3.389,2.729,2.729,0,0,1-1.994-.939l-5.714-6.713Z" transform="translate(-335.571 -324.039)" fill="#fedf30" fill-rule="evenodd"/>
      <path id="Trazado_828721" data-name="Trazado 828721" d="M371.408,355.51l1.98,1.685-3.4,3.4-1.7-2,.371-.277a12.67,12.67,0,0,0,2.469-2.44Z" transform="translate(-319.307 -307.917)" fill="#f1f1f2" fill-rule="evenodd"/>
      <path id="Trazado_828722" data-name="Trazado 828722" d="M215.4,189.334A12.134,12.134,0,1,1,203.265,177.2,12.147,12.147,0,0,1,215.4,189.334Z" transform="translate(-161.422 -149.008)" fill="#fedf30" fill-rule="evenodd"/>
      <path id="Trazado_828723" data-name="Trazado 828723" d="M451.17,20.82l4.353,4.353H451.17Z" transform="translate(-393.169 -9.643)" fill="#fedf30" fill-rule="evenodd"/>
      <path id="Trazado_828724" data-name="Trazado 828724" d="M258.395,20.792a.218.218,0,0,0-.218-.218H256.11V18H276.9v4.878a.218.218,0,0,0,.218.218h4.878V55.3H272.78l-1.1-.936.2-.318A12.567,12.567,0,0,0,256.7,35.71l-.591.225V32.606h2.067a.218.218,0,0,0,.218-.218Z" transform="translate(-219.332 -7.13)" fill="#f1f1f2" fill-rule="evenodd"/>
      <path id="Trazado_828725" data-name="Trazado 828725" d="M18,45.66H45.757V56.821H18Z" transform="translate(-7.13 -31.78)" fill="#87d4ed" fill-rule="evenodd"/>
      <path id="Trazado_828726" data-name="Trazado 828726" d="M229.056,206.14a8.986,8.986,0,1,0,8.986,8.985A9,9,0,0,0,229.056,206.14Z" transform="translate(-187.214 -174.799)" fill="#f1f1f2" fill-rule="evenodd"/>
      <path id="Trazado_828727" data-name="Trazado 828727" d="M234.807,328.473a8.688,8.688,0,0,1-.851-1.052l-.466-.681h2.067v2.528Z" transform="translate(-199.174 -282.278)" fill="#05e39c" fill-rule="evenodd"/>
      <g id="Grupo_1076054" data-name="Grupo 1076054" transform="translate(23.005 17.427)">
        <path id="Trazado_828728" data-name="Trazado 828728" d="M287.7,272.691a8.532,8.532,0,0,1-4.253.177l-.345-.074V261.55h4.907V272.6Z" transform="translate(-266.391 -241.607)" fill="#87d4ed" fill-rule="evenodd"/>
        <path id="Trazado_828729" data-name="Trazado 828729" d="M300.578,78.26a.218.218,0,0,0,0,.435h12.382a.218.218,0,0,0,0-.435Z" transform="translate(-281.773 -78.26)" fill="#87d4ed" fill-rule="evenodd"/>
        <path id="Trazado_828730" data-name="Trazado 828730" d="M300.578,125.74a.218.218,0,0,0,0,.435h16.746a.218.218,0,1,0,0-.435Z" transform="translate(-281.773 -120.574)" fill="#87d4ed" fill-rule="evenodd"/>
        <path id="Trazado_828731" data-name="Trazado 828731" d="M379.558,173.21a.218.218,0,0,0,0,.435h8.152a.218.218,0,1,0,0-.435Z" transform="translate(-352.16 -162.879)" fill="#87d4ed" fill-rule="evenodd"/>
        <path id="Trazado_828732" data-name="Trazado 828732" d="M434.53,268.378a.218.218,0,0,0,.218.218H436.9a.218.218,0,0,0,0-.435h-2.148A.217.217,0,0,0,434.53,268.378Z" transform="translate(-401.345 -247.498)" fill="#87d4ed" fill-rule="evenodd"/>
        <path id="Trazado_828733" data-name="Trazado 828733" d="M434.1,315.63h-2.489a.218.218,0,1,0,0,.435H434.1a.218.218,0,1,0,0-.435Z" transform="translate(-398.547 -289.803)" fill="#87d4ed" fill-rule="evenodd"/>
        <path id="Trazado_828734" data-name="Trazado 828734" d="M420.458,220.68a.218.218,0,1,0,0,.435h3.7a.218.218,0,1,0,0-.435Z" transform="translate(-388.61 -205.184)" fill="#87d4ed" fill-rule="evenodd"/>
        <path id="Trazado_828735" data-name="Trazado 828735" d="M129.748,109.9a.218.218,0,1,0,0,.435h12.933a.218.218,0,1,0,0-.435Z" transform="translate(-129.53 -106.457)" fill="#87d4ed" fill-rule="evenodd"/>
        <path id="Trazado_828736" data-name="Trazado 828736" d="M138.947,80.218a.218.218,0,0,0-.218-.218h-8.982a.218.218,0,0,0,0,.435h8.982A.217.217,0,0,0,138.947,80.218Z" transform="translate(-129.53 -79.811)" fill="#87d4ed" fill-rule="evenodd"/>
      </g>
      <path id="Trazado_828737" data-name="Trazado 828737" d="M44.786,70.736l1.508-1.12a.218.218,0,0,0-.259-.35l-1.249.927v-.946a.218.218,0,0,0-.218-.218h-5.64a.217.217,0,0,0-.218.218v5.64a.217.217,0,0,0,.218.218h5.64a.218.218,0,0,0,.218-.218Z" transform="translate(-25.586 -52.607)" fill="#f1f1f2" fill-rule="evenodd"/>
      <path id="Trazado_828738" data-name="Trazado 828738" d="M47.915,78.235H42.71V73.03h5.205v1.051l-2.546,1.89-.928-1.214a.217.217,0,0,0-.346.263l1.059,1.387a.219.219,0,0,0,.3.042l2.46-1.826v3.611Z" transform="translate(-29.151 -56.172)" fill="#05e39c" fill-rule="evenodd"/>
      <path id="Trazado_828739" data-name="Trazado 828739" d="M18.329,21.628H13.994V17.293h4.335v.4l-2.026,1.5-.668-.874a.653.653,0,0,0-1.038.791L15.656,20.5a.652.652,0,0,0,.907.128l1.765-1.31v2.311Zm1.861-5.318-.554.411V16.64a.653.653,0,0,0-.653-.653H13.341a.653.653,0,0,0-.653.653v5.64a.653.653,0,0,0,.653.653h5.64a.653.653,0,0,0,.653-.653V18.347l1.332-.989a.653.653,0,0,0-.777-1.049Zm16.62,4.778a.653.653,0,0,1-.653.653H23.223a.653.653,0,1,1,0-1.306H36.156A.653.653,0,0,1,36.809,21.087ZM22.57,17.834a.653.653,0,0,1,.653-.653H32.2a.653.653,0,0,1,0,1.306H23.223A.653.653,0,0,1,22.57,17.834ZM41.842,32.211a8.113,8.113,0,0,1,3.649,15.36V37.152a.653.653,0,0,0-.653-.653H39.5a.653.653,0,0,0-.653.653V47.865a8.044,8.044,0,0,1-1.59-.85v-2.77a.653.653,0,0,0-.653-.653H34.415a8.11,8.11,0,0,1,7.427-11.381ZM40.149,48.263a8.1,8.1,0,0,0,4.037-.169V37.8H40.149ZM35.95,45.9v-1h-.807A8,8,0,0,0,35.95,45.9Zm5.893,3.851a9.421,9.421,0,1,0-9.421-9.421A9.432,9.432,0,0,0,41.842,49.747Zm17.366-6.276a.653.653,0,0,1-.653.653H56.066a.653.653,0,1,1,0-1.306h2.489A.653.653,0,0,1,59.208,43.471Zm0-5.165a.653.653,0,0,1-.653.653H56.408a.653.653,0,1,1,0-1.306h2.148A.652.652,0,0,1,59.208,38.306Zm0-5.166a.652.652,0,0,1-.653.653h-3.7a.653.653,0,1,1,0-1.306h3.7A.653.653,0,0,1,59.208,33.14Zm0-5.165a.653.653,0,0,1-.653.653H50.4a.653.653,0,0,1,0-1.306h8.152A.653.653,0,0,1,59.208,27.975Zm0-5.165a.653.653,0,0,1-.653.653H41.81a.653.653,0,1,1,0-1.306H58.556A.652.652,0,0,1,59.208,22.811ZM41.157,17.645a.653.653,0,0,1,.653-.653H54.192a.653.653,0,1,1,0,1.306H41.81a.652.652,0,0,1-.653-.653Zm12.45,30.086h8.618V16.4H57.783a.653.653,0,0,1-.653-.653V11.306H37.213v1.7h1.632a.653.653,0,0,1,.653.653v11.6a.653.653,0,0,1-.653.653H37.213v2.262a13,13,0,0,1,15.7,18.968Zm8.025,9.557a2.826,2.826,0,0,1-2.938,2.937,2.291,2.291,0,0,1-1.681-.787l-5.453-6.407,2.878-2.878,6.407,5.453A2.3,2.3,0,0,1,61.633,57.288Zm-9.464-9.067L53.441,49.3l-2.73,2.73-1.1-1.288A13.113,13.113,0,0,0,52.169,48.222Zm-7.983,14H40.149v-9a13.156,13.156,0,0,0,1.693.11,13,13,0,0,0,2.344-.212Zm-28.749-15.5,4.037.038V62.226H15.437Zm8.238,5.9h4.037v9.6H23.674Zm8.238-3.911a13.087,13.087,0,0,0,4.037,3.2V62.226H31.912Zm6.933,4.268v9.244h-1.59V52.494A12.988,12.988,0,0,0,38.845,52.982Zm3-24.355a11.7,11.7,0,1,0,11.7,11.7A11.712,11.712,0,0,0,41.842,28.627ZM11.306,14.315V24.606H38.192V14.315Zm47.13-2.087L61.3,15.1H58.436Zm5.094,3.52a.651.651,0,0,0-.19-.461l-5.1-5.1a.651.651,0,0,0-.461-.19H36.561a.653.653,0,0,0-.653.653V13.01H10.653a.653.653,0,0,0-.653.653v11.6a.653.653,0,0,0,.653.653H35.908v2.845a12.995,12.995,0,0,0-5.3,18.111V62.226h-1.59V51.972a.653.653,0,0,0-.653-.653H23.023a.653.653,0,0,0-.653.653V62.226H20.78V46.115a.653.653,0,0,0-.646-.653l-5.342-.049h-.007a.654.654,0,0,0-.653.653V62.226H11.306V32.477a.653.653,0,0,0-1.306,0v30.4a.653.653,0,0,0,.653.653h40.38a.653.653,0,0,0,0-1.306H45.492V52.809a12.949,12.949,0,0,0,3.032-1.33l7.5,8.805a3.58,3.58,0,0,0,2.623,1.245c.055,0,.11,0,.164,0a4.129,4.129,0,0,0,4.13-4.3,3.584,3.584,0,0,0-1.245-2.623l-6.551-5.576h7.737a.653.653,0,0,0,.653-.653V15.748Z" fill-rule="evenodd"/>
    </g>
  </g>
</svg>
