<svg id="i1" xmlns="http://www.w3.org/2000/svg" width="81.146" height="120.361" viewBox="0 0 81.146 120.361">
  <circle id="Elipse_4721" data-name="Elipse 4721" cx="40.5" cy="40.5" r="40.5" transform="translate(0 39.361)" fill="#b8dfdb"/>
  <path id="Sustracción_5" data-name="Sustracción 5" d="M81,39.361H0v-.247A37.88,37.88,0,0,1,3.183,23.889a38.67,38.67,0,0,1,3.734-6.645,39.678,39.678,0,0,1,4.946-5.788A40.683,40.683,0,0,1,24.735,3.074a41.318,41.318,0,0,1,7.6-2.279,42.307,42.307,0,0,1,16.322,0A41.051,41.051,0,0,1,63.143,6.68a40.537,40.537,0,0,1,5.993,4.776,39.772,39.772,0,0,1,4.946,5.788,38.561,38.561,0,0,1,3.732,6.645A37.763,37.763,0,0,1,81,39.114c0,.081,0,.161,0,.241v.007Z" transform="translate(0.146)" fill="#b8dfdb"/>
</svg>
