<svg xmlns="http://www.w3.org/2000/svg" width="20" height="9.671" viewBox="0 0 20 9.671">
  <path id="vineta" d="M20,0H0V.061A9.267,9.267,0,0,0,.786,3.8a9.488,9.488,0,0,0,.922,1.633A9.762,9.762,0,0,0,2.929,6.856a10,10,0,0,0,1.48,1.173,10.1,10.1,0,0,0,1.7.886,10.24,10.24,0,0,0,1.878.56,10.441,10.441,0,0,0,2.015.2,10.435,10.435,0,0,0,2.015-.2,10.2,10.2,0,0,0,1.877-.56,10.119,10.119,0,0,0,1.7-.886,10,10,0,0,0,1.48-1.173,9.785,9.785,0,0,0,1.221-1.422A9.461,9.461,0,0,0,19.214,3.8,9.285,9.285,0,0,0,19.8,2,9.317,9.317,0,0,0,20,.061c0-.02,0-.04,0-.059h0Z" fill="#8054f8"/>
</svg>
